<svg id="Layer_1" data-name="Layer 1" xmlns="http://www.w3.org/2000/svg" viewBox="0 0 757.11 450.71"><defs><style>.cls-1{fill:#c9ebee;}.cls-2{fill:#362c53;}.cls-3{fill:#a4c2c2;}.cls-4{fill:#6f5d95;}.cls-5{fill:#35b3d7;}.cls-6{fill:#3bb5d8;}.cls-7{fill:#c9ebed;}.cls-8{fill:#a1d9dd;}.cls-9{fill:#f37c95;}.cls-10{fill:#a895d1;}.cls-11{fill:#f4b2a1;}.cls-12{fill:#f5b2a1;}.cls-13{fill:#f37c96;}.cls-14{fill:#bdb1dc;}.cls-15{fill:#dbca7d;}.cls-16{fill:#ed8c74;}.cls-17{fill:#dbcb7e;}.cls-18{fill:#ed9078;}.cls-19{fill:#f5b3a2;}.cls-20{fill:#f4f8f8;}.cls-21{fill:#faf8ef;}.cls-22{fill:#927bc6;}.cls-23{fill:#c8ebee;}.cls-24{fill:#bc6074;}.cls-25{fill:#c7eaed;}.cls-26{fill:#2aaed5;}</style></defs><path class="cls-1" d="M891.26,317.2c4.55,2.69,9.27,5.16,13.63,8.13,5.56,3.79,11,7.77,16.17,12.07,4.52,3.77,8.58,8.09,12.81,12.19.24.23.22.72.33,1.09-.72,0-1.44.1-2.16.1H901.7c-4,0-5.7,1.75-5.71,5.79v32.7c0,5,1.42,6.43,6.43,6.44l28.16.09a21.78,21.78,0,0,0,.94,3.74c.21.46,1.21.56,1.86.83a4.76,4.76,0,0,0,.53-1.58,24.26,24.26,0,0,0-.51-3c.92,0,1.84,0,2.76-.06A4.5,4.5,0,0,0,941,391.5a17.93,17.93,0,0,0,.17-2.74q.06-14.46.1-28.9a40.82,40.82,0,0,1,4.11,4.74A113.6,113.6,0,0,1,957.87,391a142.73,142.73,0,0,1,5.56,26,147.43,147.43,0,0,1,1,24.48c-.27,6.63-1.18,13.24-1.82,19.85-.12,1.17-.39,2.33-.4,3.5a2.51,2.51,0,0,0,.66,1.85,14,14,0,0,1,4.8,6V477c-.14.34-.32.68-.43,1-1,3.43-5.24,6.9-8.62,6.47a4.56,4.56,0,0,1,0-1q1.27-6.12,2.59-12.23c1.15-5.43.14-6.7-5.36-5.66a9.47,9.47,0,0,0-7.16,12.33c1.4,4.48,4.89,6.6,9.5,6.92-1.17,4.74-2.07,9.57-3.57,14.21q-4.7,14.44-9.94,28.7c-1.9,5.13-4.38,10-6.59,15,.44-4.81.85-9.62,1.32-14.42.72-7.27,1.49-14.54,2.23-21.81,3.29-1,4.35-2.42,4.37-5.77v-4.89c0-4-1.55-5.69-5.56-6,.07-.51.15-1,.2-1.54.33-3.83.7-7.66.92-11.49,0-.46-.73-1-1.12-1.47-.39.43-1.09.81-1.14,1.27-.48,4.4-.85,8.82-1.26,13.23l-28.76.07c.21-1.34.31-2.71.64-4,1.2-4.85,2.48-9.68,3.73-14.52.78,0,1.57,0,2.36,0,3.85,0,7.72.2,11.55-.13a12.88,12.88,0,0,0,5.74-2.14c1.8-1.2,1.29-3.44-.73-4.35a6.2,6.2,0,0,0-2.08-.49,17,17,0,0,0-9,1.59c-2.28,1.13-4.48,2.39-6.72,3.6a15.93,15.93,0,0,1,.82-2.78c2-4,4-8,6-12,1.09.4,2.19.82,3.28,1.21,4.77,1.73,9.47,3.84,14.75,2.39a10.19,10.19,0,0,0,.1,2.54,1.73,1.73,0,0,0,1.3,1c.45,0,1.29-.65,1.29-1q-.07-7.83-.4-15.66c0-.45-.8-.88-1.22-1.32-.48.46-1.25.86-1.36,1.39a16.68,16.68,0,0,0,.1,2.9c0,1.46-.13,2.92-.2,4.38-5.61-1.51-11.11-.82-16.57.81.51-.9,1-1.84,1.53-2.7,2.26-3.4,4.56-6.77,6.84-10.16,3.79.65,7.56,1.62,11.37,1.83a41.33,41.33,0,0,0,9.44-.95,3.12,3.12,0,0,0,2.7-3.21c-.1-1.84-1.72-2.56-3.21-2.59a76.24,76.24,0,0,0-10.69.31c-2.48.3-4.88,1.33-7.31,2l9.45-11.86c5.63-2.23,8.36-6.67,9.26-12.39.27-1.7,0-3.52-1.74-4.45s-3.5-.28-4.67,1.27a9.84,9.84,0,0,0-2,3.74c-.74,3.76-1.16,7.58-1.7,11.38l-1.88,1.64c-.78-4.27-1.52-8.56-2.4-12.81a2,2,0,0,0-1.44-1.25c-1,.06-1.19.78-1,1.86.91,4.84,1.68,9.72,2.49,14.58l-3.6,4.71a66,66,0,0,0-.08-8.44,60.46,60.46,0,0,0-2.2-9,2.37,2.37,0,0,0-1.86-1.33,2.77,2.77,0,0,0-1.91,1.59,17.16,17.16,0,0,0-.87,5.55c.32,5.19,1.83,10,5.43,14L931,439.49h0a30.26,30.26,0,0,0-2.74,2.81c-1.68,2.19-3.22,4.48-4.82,6.73,0-1,0-2,0-2.95.06-5.37-.65-10.59-3.15-15.43-.78-1.51-1.88-2.77-3.81-2.53a3.66,3.66,0,0,0-2.86,3.75,25.59,25.59,0,0,0,7.93,19.86c-.25.67-.43,1.36-.74,2-2.29,4.64-4.88,9.15-6.84,13.93s-3.43,10.09-5,14.76c-.78-3.59-1.25-7.75-2.67-11.56-1-2.76-.3-4.32,1.29-6.36,3.64-4.66,5.48-10,4.38-15.95-.44-2.45-2-3.87-3.8-3.92a4.1,4.1,0,0,0-4.06,3.62,68.7,68.7,0,0,0-.82,9.07,53.1,53.1,0,0,0,.26,5.32c-3.54-5.36-7.11-10.8-10.77-16.35,4.49-3.85,5.52-9.39,6.48-14.88a14.63,14.63,0,0,0-.37-5.25,2.57,2.57,0,0,0-4-1.89,5.93,5.93,0,0,0-2.55,2.32c-1.71,3.48-1.91,7.28-1.74,11.09.08,2,.27,4,.42,5.95a21.72,21.72,0,0,1-3.71-4.81c-.85-1.58-1.88-3.36-1.87-5.05,0-2.83,1.07-5.65,1.2-8.5a77.59,77.59,0,0,0-.35-10.78c-.22-2.36-2.5-3.59-4.77-3s-3.7,2.7-3.8,5.79c-.15,5,1.62,9.37,3.89,13.63.71,1.34,1.6,2.58,2.41,3.87-2.22-.92-4.08-2.27-6.16-3a36.21,36.21,0,0,0-8.11-2c-2.26-.27-3.31,1.44-2.27,3.47a8.18,8.18,0,0,0,2.77,2.9,13,13,0,0,0,10.06,1.67c4.08-1,5.9.75,7.37,4a32,32,0,0,0,2.31,3.7c-3-.8-5.71-1.72-8.49-2.21-3-.53-6.06-.37-8.48,1.94-1.22,1.15-1.36,2.64,0,3.54s3.12,1.8,4.62,1.68c4.34-.34,8.65-1.15,12.94-1.91,1-.18,1.62-.31,2.29.7,1.7,2.56,3.67,4.94,5.34,7.52s3.05,5.24,4.62,8c-.5.11-.58.15-.61.13-.26-.19-.52-.38-.77-.58-3.34-2.73-7-4.62-11.49-4.27a3.72,3.72,0,0,0-3.54,2.64c-.54,1.72.54,2.85,1.93,3.68a4.87,4.87,0,0,0,1.24.59c4,1.05,8,1.86,12.2,1.06,1.47-.28,2.36,0,2.89,1.72a59,59,0,0,1,3,20.29H876.69c-3.61,0-5.63,2-5.65,5.52,0,2,0,3.93,0,5.9,0,2.8,1.49,4.53,4.35,5.19.28,2.73.55,5.46.83,8.2.6,5.85,1.22,11.7,1.81,17.56s1.16,12,1.74,18q-21.78,0-43.55.05c-4.14,0-8.28-.05-12.42-.08q5.28-16.38,10.54-32.75c4.41-13.8,8.75-27.62,13.17-41.41,4.24-13.23,8.57-26.43,12.81-39.67q8.58-26.78,17.07-53.59c.59-1.87,1.07-3.77,1.6-5.66a7.37,7.37,0,0,0,.25-2.05c-.67-3.76-3.48-5.81-7.87-5.81q-90.61,0-181.24,0a10.51,10.51,0,0,0-2,.4c-5.31-.61-7.26.61-8.91,5.68-1.12,3.43-2.16,6.88-3.26,10.32q-13.81,43.18-27.65,86.38c-2.2,6.86-4.48,13.7-6.72,20.55L632.11,496a12.69,12.69,0,0,1-1.12-2.32c-1.59-6.19-3.12-12.39-4.69-18.59-1.37-5.44-2.78-10.87-4.17-16.31,2-1.32,3.3-2.83,2.85-5.51-.79-4.78-1.27-9.61-2-14.4a419.55,419.55,0,0,0-10.15-48.64c-3.86-13.66-8.19-27.14-15.24-39.57-4.15-7.32-9.11-14-16.21-18.72-9.52-6.38-20.07-10.51-30.94-13.9-9.95-3.09-20-6-29.89-9.19-3.91-1.26-7.62-3.13-11.42-4.73l-7.37-6.61L500,289.66a8.53,8.53,0,0,1,1.38-1.05c9.37-4.43,15.88-11.89,21.14-20.48A104.52,104.52,0,0,0,534.74,238c1.38-5.71,2.36-11.51,3.52-17.27a22,22,0,0,0,8-8,49.72,49.72,0,0,0,7.66-23c.6-6.9.32-13.88.43-20.83,4.95.83,10,1.37,14.84,2.53,8.89,2.13,17.72,4.54,26.52,7,3.83,1.07,7.54,2.6,11.28,4,.43.16.73.65,1.09,1-.78,0-1.57.12-2.35.13-11.11,0-22.21,0-33.32,0-6.84,0-11.68,4.86-11.69,11.66,0,21.69.11,43.37-.07,65.05,0,6.79,5.49,12.33,12,12s13,0,19.51-.1c1.78,0,2.24.55,2.2,2.25-.1,5.06-.05,10.12,0,15.18a9.6,9.6,0,0,0,.42,2,8.08,8.08,0,0,0,1.84-1.19q7.5-8.22,14.89-16.53a4.72,4.72,0,0,1,3.91-1.72c30.49,0,61-.08,91.46.12,7.45,0,12.79-5.64,12.46-12.39-.27-5.5,0-11,0-16.54,2.27,1,4.57,1.89,6.81,2.92,3,1.37,5.88,2.93,8.89,4.2a2.94,2.94,0,0,0,2.54-.5c6.22-5.79,13.54-8.67,22-8.12a28.43,28.43,0,0,1,25,18A46.62,46.62,0,0,1,787,270.82c.21,1.72.74,2.56,2.24,3.14,5,1.9,10,3.86,15,5.84a6.9,6.9,0,0,1,1.45,1.11c-7.24,0-10.92,5-10.91,10.61,0,17.4,0,34.8,0,52.21a6.57,6.57,0,0,0,.51,1.77,6.19,6.19,0,0,0,1.59-.92c2.79-2.95,5.57-5.92,8.27-9a5.07,5.07,0,0,1,4.19-2c13.27.09,26.53,0,39.8,0a14.18,14.18,0,0,0,2.35-.12c5.21-.91,8.33-4.87,8.37-10.75.06-6.83,0-13.66,0-20.49,2.55,1,5.16,1.78,7.63,2.92,5.38,2.5,10.69,5.16,16,7.75.21.1.46.12,1-.19-1.3-1.56-2.58-3.13-3.9-4.68a13.68,13.68,0,0,1-1.73-1.86,1.81,1.81,0,0,1,.07-1.69,1.76,1.76,0,0,1,1.72,0c3.28,3.79,6.45,7.66,9.65,11.51l-4.3-1.55a32.64,32.64,0,0,0,3,3.53C890.09,318.87,890.94,318.49,891.26,317.2Zm-133.37-17c2.56-.41,5.18-.65,7.69-1.28a27.81,27.81,0,0,0,16-11.13,29,29,0,0,0,5.12-13c.14-.94.2-1.81-1.11-2.34q-12.75-5.11-25.41-10.43c-4.83-2-9.58-4.24-14.37-6.37-2.75-1.22-5.48-2.51-8.29-3.57a2.6,2.6,0,0,0-2.28.71,29.9,29.9,0,0,0-6.14,14.45,28,28,0,0,0,7.55,23.66C742.23,297,749.45,300,757.89,300.24ZM559.57,286c.44-6.11-5.25-11.65-11.5-11.68a11.52,11.52,0,0,0-11.76,11.81A11.4,11.4,0,0,0,548,297.79C555,297.8,559.63,292.45,559.57,286Zm135.69,69.56H727c4.36,0,6-1.69,6-6.12V315.48c0-4.36-1.74-6.1-6.08-6.1H663.67c-4.36,0-6.16,1.75-6.17,6q0,17.16,0,34.3c0,3.92,1.89,5.78,5.82,5.78ZM648.68,415.9a6.43,6.43,0,0,0-6.19-6.77,6.5,6.5,0,0,0-6.82,6.78,6.51,6.51,0,0,0,13,0ZM883.3,345.73a5.52,5.52,0,1,0-5.62,5.4A5.65,5.65,0,0,0,883.3,345.73ZM617.92,318.79a5,5,0,0,0,5.39,5.17c3.21,0,5.28-2.21,5.26-5.55a5.69,5.69,0,0,0-5.29-5.1C620.07,313.28,617.92,315.48,617.92,318.79Zm291.49,24a15.6,15.6,0,0,0-.92-1.91c-2.55-3.85-5.1-7.72-7.75-11.51-.34-.49-1.22-.6-1.85-.89-.06.81-.47,1.83-.13,2.39,2.57,4.13,5.27,8.2,8,12.23.27.39,1.12.5,1.71.5C908.78,343.57,909.09,343.05,909.41,342.75ZM765.87,328.3a2.74,2.74,0,1,0,2.68,2.59A2.92,2.92,0,0,0,765.87,328.3Z" transform="translate(-210.58 -102.34)"/><path class="cls-2" d="M406.1,197c-.31-3.4-.69-6.79-.92-10.19-1.05-15.88,1.75-30.91,10.45-44.46,8.59-13.4,20.76-21.27,36.75-22.89l1.73-.19c-1.44-.8-2.59-1.37-3.66-2.06a12.37,12.37,0,0,1-2.29-1.85c-2.18-2.27-1.68-4.68,1.24-5.92a11.53,11.53,0,0,1,8.47,0c1.67.57,3.24,1.39,5,2.17a14.75,14.75,0,0,1,7.57-9.23h2.76c1.8,1.42,1.74,3.26,1.09,5.16-.44,1.28-1.05,2.5-1.61,3.8,3.3-.63,6.48-1.43,9.71-1.83,16.92-2.09,32.06,2.49,45.9,12.21,15,10.54,22.4,25.47,25.35,43.06l.72,4.25c-.11,6.95.17,13.93-.43,20.83a49.72,49.72,0,0,1-7.66,23,22,22,0,0,1-8,8c.21-2.65.42-5.3.58-7.34-1.39-.63-2.58-.85-3.3-1.55-3.94-3.82-8.42-5.14-13.73-3.53-1.18.36-2.59.74-3.23-.84s.39-2.53,1.53-3.25a10.61,10.61,0,0,1,3-1.32,12.72,12.72,0,0,1,11.62,2.75c1.68,1.4,2.93,3.33,4.66,5.36-.25-7.18-.52-14.13-.72-21.07,0-1.34-.63-1.58-1.83-1.6-2.88-.06-5.78-.12-8.64-.46-14.75-1.76-27.08-8.13-36.37-19.81-3-3.77-5.4-8-8.06-12,.15-.13,0-.07,0,0-.26.6-.52,1.2-.76,1.81A50,50,0,0,1,462.1,183q-5,3-10.18,5.59a12.18,12.18,0,0,0-6.75,8.21,65.32,65.32,0,0,1-2.85,8.79,44.77,44.77,0,0,1-3.45,5.74,57.45,57.45,0,0,0-4.17-5.6c-6-6.24-15.18-5-19.22,2.48-2,3.62-2.16,7.51-1.67,11.49.13,1.09.22,2.19.33,3.28-1.48-3.64-3.26-7.19-4.38-10.94C408.27,207.1,407.3,202,406.1,197Z" transform="translate(-210.58 -102.34)"/><path class="cls-3" d="M210.58,430a63.26,63.26,0,0,1,2.61-7.5c2.85-5.8,7.83-8.56,14.15-9a34.16,34.16,0,0,1,14.38,2.39c1.26.47,2,.26,2.53-.86.22,1.5,1.16,2.26,2.48,3a133.5,133.5,0,0,1,12.45,7.07,116.63,116.63,0,0,1,12.63,9.85c5.06,4.54,9.86,9.37,14.57,14.28,3.47,3.62,6.62,7.56,9.91,11.36l1.41,1.81,4.71,6.69c0,2.16,0,4.31.1,6.46.14,2.77.39,3,3.15,3.51,1.14.2,2.32.24,3.48.35l.34,6c-1.29-.21-1.38.73-1.44,1.59-.28,4.65-.56,9.29-.8,13.94-.3,5.89-.56,11.78-.88,17.67-.09,1.69-.33,3.37-.55,5.49-.5-.88-.77-1.32-1-1.78A237.3,237.3,0,0,0,287.46,493a6.59,6.59,0,0,1-1.11-3.61c.15-6.48.49-13,.78-19.45q.17-3.74.37-7.46c.07-1.18.25-2.35.24-3.52,0-.29-.55-.57-.85-.86-.19.3-.53.58-.56.9-.17,1.62-.3,3.26-.37,4.89-.31,7.41-.58,14.81-.89,22.21a22.79,22.79,0,0,1-.45,2.78c-.47-.62-.72-1-1-1.31-5.85-7.32-11.72-14.62-17.51-22a5.35,5.35,0,0,1-1.05-3c-.08-9.39,0-18.79-.06-28.19a12.83,12.83,0,0,0-.33-2l-.82.07v30.23c-2.67-2.89-4.81-5.36-7.11-7.67-5-5-10-10-15.09-15-1.24-1.22-2.43-2.21-2.44-4.35,0-6-.4-12.06-.69-18.08a7.34,7.34,0,0,0-.54-1.75l-1,.12c.21,6.61.43,13.23.67,20.27a192.21,192.21,0,0,0-18-15.09l-.7.81c5.36,5.17,11.84,9.16,16.87,15.09-.65,0-.91.09-1.16.07-6.77-.73-13.53-1.48-20.3-2.15a9.62,9.62,0,0,0-2.61.43,7.78,7.78,0,0,0,2.46,1.23c7.36.76,14.73,1.37,22.09,2.12a5,5,0,0,1,2.82,1.14q9,8.65,17.85,17.49c1.9,1.9,3.54,4.06,5.67,6.53-7.14-.4-13.61-.69-20.07-1.13s-12.85-1-19.32-.36a2,2,0,0,0,1.5.73c6.27.41,12.54.82,18.81,1.17,5.7.31,11.4.48,17.09.85,1.62.1,3.35,0,4.62,1.6,4.9,6.23,9.93,12.37,14.87,18.57,1.2,1.5,2.23,3.13,3.58,5.06h-2.57c-10.38-.15-20.75-.32-31.12-.43a5.13,5.13,0,0,0-1.64.63c.55.29,1.09.82,1.64.83,10.76.2,21.53.39,32.3.45a4.21,4.21,0,0,1,4,2.15c3.73,6,7.65,11.92,11.27,18,2.68,4.49,5,9.2,7.58,14a5.45,5.45,0,0,1-.88,0c-8.36-1.87-16.73-3.76-25.11-5.59a11,11,0,0,0-2.68.06,10.64,10.64,0,0,0,2.47,1.34c8.48,2,17,3.84,25.47,5.8a2.73,2.73,0,0,1,1.78,1.22c2.74,7.09,5.37,14.22,8,21.33l-22.11.1a20.61,20.61,0,0,0-1-2.72A155.81,155.81,0,0,0,274,521.88c-3-3.54-6.27-6.84-9.42-10.24h0c0-.12,0-.25,0-.37l-3.48-2.81a4.41,4.41,0,0,0-.65-1.17c-4.08-4-8.17-7.92-12.3-11.83a17.55,17.55,0,0,0-2.41-1.63c-2.62-2.91-5.17-5.89-7.88-8.71a136.58,136.58,0,0,1-17.55-21.84c-3.69-5.91-6.86-12.06-8.44-18.92l-1.29-5.67Z" transform="translate(-210.58 -102.34)"/><path class="cls-4" d="M292.24,550.32l22.11-.1,1.49,0h51.3c.39,0,.79.05,1.18.05H491.93c.35,0,.69,0,.84,0-1.09-1.25-2.47-2.29-3.14-3.68-2.11-4.44,1.13-9.17,6.26-9.24,6.3-.08,12.61,0,18.92,0l59.34-.05,21,0c10.24,0,20.48,0,30.72.07,1.25,0,1.68-.55,2-1.62,2.69-8.5,5.45-17,8.16-25.47,1.66-5.18,3.26-10.38,4.88-15.57.21-.69.43-1.37.64-2.06,2.24-6.85,4.52-13.69,6.72-20.55q13.85-43.19,27.65-86.38c1.1-3.44,2.14-6.89,3.26-10.32,1.65-5.07,3.6-6.29,8.92-5.68a7,7,0,0,1,4,7c0,.53-.1,1.06-.14,1.59-.48,1.27-1,2.52-1.42,3.81-2.95,9.23-5.85,18.47-8.81,27.69-4.27,13.27-8.6,26.53-12.87,39.8q-8,24.85-15.91,49.74-7.71,24.15-15.43,48.29c-.25.78-.42,1.59-.68,2.6H823.37l.43,0c4.14,0,8.28.08,12.42.08q21.76,0,43.55-.05h57.52c6.16,0,12.31,0,18.46.08,2.1,0,2.5.69,1.69,2.68H252.38c-.42-2.21,0-2.68,2.21-2.69l18.3-.07Z" transform="translate(-210.58 -102.34)"/><path class="cls-5" d="M719.38,243.48c0,5.51-.32,11,0,16.54.33,6.75-5,12.44-12.46,12.39-30.49-.2-61-.07-91.46-.12A4.72,4.72,0,0,0,611.5,274q-7.38,8.33-14.89,16.53a8.08,8.08,0,0,1-1.84,1.19,9.6,9.6,0,0,1-.42-2c0-5.06-.09-10.12,0-15.18,0-1.7-.42-2.28-2.2-2.25-6.5.1-13-.18-19.51.1s-12-5.25-12-12c.18-21.68.06-43.36.07-65.05,0-6.8,4.85-11.64,11.69-11.66,11.11,0,22.21,0,33.32,0,.78,0,1.57-.08,2.35-.13,5,.06,10.1.14,15.16.16l84,.29c7.54,0,11.93,4.47,12,12.07q0,14.67.08,29.33c0,.94,0,1.88,0,2.81Q719.36,235.82,719.38,243.48Zm-1.65-16.17c0-.64,0-1.27,0-1.9,0-1.31.16-2.62.16-3.93,0-8.87.18-17.74-.12-26.6-.22-6.27-3.91-9.52-10.22-9.55-19-.08-38-.08-56.95-.1-2.1,0-4.21,0-6.31,0l-29.94-.1c-14.26,0-28.52-.06-42.77,0a9.66,9.66,0,0,0-9.38,9.34c-.07,2.75,0,5.51,0,8.27q0,28.78,0,57.56a13,13,0,0,0,.42,3.69c1.4,4.59,5.12,7.06,10.63,7.07,6.5,0,13-.08,19.51-.14,3,0,3,0,3,3,0,4.46,0,8.93,0,13.4a10.81,10.81,0,0,0,.16,1.38l.47.21a5.36,5.36,0,0,1,.51-.87c4.33-4.84,8.71-9.64,13-14.54a6.36,6.36,0,0,1,5.34-2.52c29.57.1,59.14.07,88.7.06,1.77,0,3.55-.1,5.31-.26,4.29-.38,8.32-4.29,8.42-8.56.15-6.62,0-13.26,0-19.89Q717.73,234.83,717.73,227.31Z" transform="translate(-210.58 -102.34)"/><path class="cls-5" d="M859.9,302.34c0,6.83,0,13.66,0,20.49,0,5.88-3.16,9.84-8.37,10.75a14.18,14.18,0,0,1-2.35.12c-13.27,0-26.53.05-39.8,0a5.07,5.07,0,0,0-4.19,2c-2.7,3-5.48,6-8.27,9a6.19,6.19,0,0,1-1.59.92,6.57,6.57,0,0,1-.51-1.77c0-17.41,0-34.81,0-52.21,0-5.58,3.67-10.56,10.91-10.61,5.84,0,11.67.12,17.5.14,8.53,0,17.05,0,25.58,0a12.14,12.14,0,0,1,7.25,2l3.3,4.63.42,9.38C859.77,298.82,859.83,300.58,859.9,302.34Zm-1.55-11.9-.11-.57c-.68-4.46-3.71-7.34-8.09-7.35-12.62-.06-25.23,0-37.84,0l-6.3,0c-6.57,0-9.81,3.24-9.82,9.77v50.88c3.2-3.4,6.1-6.33,8.8-9.42a4,4,0,0,1,3.36-1.51q20.5.07,41,0c5.14,0,8.61-2.74,8.83-7.8.33-7.79.13-15.61.15-23.41Z" transform="translate(-210.58 -102.34)"/><path class="cls-6" d="M930.58,395.81l-28.16-.09c-5,0-6.43-1.43-6.43-6.44v-32.7c0-4,1.72-5.78,5.71-5.79H932c.72,0,1.44-.06,2.16-.1s1.56.07,2.33.14a4.55,4.55,0,0,1,4.4,4.57c.08,1.49.19,3,.29,4.47q0,14.44-.1,28.9a17.93,17.93,0,0,1-.17,2.74,4.5,4.5,0,0,1-4.79,4.21c-.92,0-1.84,0-2.76.06Zm5.59-43.8L902.66,352c-4.33,0-5.32.93-5.5,5.23,0,.32,0,.65,0,1v30.95a14,14,0,0,0,.15,2.15c.38,2.22,1.49,3.27,3.74,3.27,9.59,0,19.18,0,28.77,0l2.8,0c1.24,0,2.49.12,3.73,0a3.35,3.35,0,0,0,3.39-3.39c0-11.36,0-22.72-.06-34.08C940,353.62,939.1,352.28,936.17,352Z" transform="translate(-210.58 -102.34)"/><path class="cls-7" d="M790.75,246.45c-2.58-.89-4.92-1.67-7.24-2.53s-4.77-1.74-7.07-2.79c-.62-.29-.94-1.24-1.4-1.88.71-.18,1.53-.69,2.1-.49q6.93,2.43,13.76,5.13c.53.21.82,1,1.22,1.56Z" transform="translate(-210.58 -102.34)"/><path class="cls-7" d="M832.11,264.08c1.75,1,3.29,1.68,4.68,2.61,2.72,1.8,5.37,3.7,8,5.59.9.64,2.52,1.21,1.53,2.62s-2,.24-3-.44c-3.55-2.44-7.17-4.78-10.72-7.22a4,4,0,0,1-1.31-1.75C831.22,265.22,831.76,264.68,832.11,264.08Z" transform="translate(-210.58 -102.34)"/><path class="cls-7" d="M819,259a15.68,15.68,0,0,1-1.58-.56c-4.07-1.94-8.16-3.83-12.16-5.89-.67-.34-1.52-1.63-1.33-2.08.47-1.11,1.52-1,2.63-.43,4,2,8,4,12.07,6a2.94,2.94,0,0,1,1.25.92,1.93,1.93,0,0,1,.17,1.45C820,258.7,819.38,258.83,819,259Z" transform="translate(-210.58 -102.34)"/><path class="cls-7" d="M746.5,230.33l12.67,3.16a9.18,9.18,0,0,1,2.42.72c.45.26.64,1,.95,1.51-.57.31-1.22,1-1.7.89q-7.23-1.61-14.41-3.49c-.6-.16-1-1.12-1.48-1.7Z" transform="translate(-210.58 -102.34)"/><path class="cls-1" d="M859.27,287.68l-3.3-4.63c1.41-.71,2.45-.39,3.62.76,3.12,3.06,6.42,5.94,9.62,8.91.72.66,1.69,1.45.72,2.44s-1.73,0-2.46-.64c-2.33-2.09-4.67-4.18-7-6.24A5.37,5.37,0,0,0,859.27,287.68Z" transform="translate(-210.58 -102.34)"/><path class="cls-7" d="M719.33,228.15c0-.93,0-1.87,0-2.81L729.93,227a2.07,2.07,0,0,1,1.1.37,12.41,12.41,0,0,1,1.15,1.59c-.63.3-1.3.93-1.87.85C726.64,229.37,723,228.73,719.33,228.15Z" transform="translate(-210.58 -102.34)"/><path class="cls-8" d="M891.26,317.2c-.32,1.29-1.17,1.67-2.13.84a32.64,32.64,0,0,1-3-3.53l4.3,1.55Z" transform="translate(-210.58 -102.34)"/><path class="cls-9" d="M574.15,537.29l-59.34.05c-6.31,0-12.62-.06-18.92,0-5.13.07-8.37,4.8-6.26,9.24.67,1.39,2.05,2.43,3.14,3.68-.15,0-.49,0-.84,0H368.32c-.39,0-.79,0-1.18-.05.25-2.47.61-4.93.73-7.4.32-6.47.71-12.94.77-19.41.11-12.34,0-24.67,0-37l.39-7.14c4-.53,8.05-.9,12-1.64,3.15-.59,4.46-2.1,4.57-4.59.17-3.92.4-7.85.38-11.78q-.09-21.46-.35-42.92c-.06-5-.24-10.09-.43-15.13a44.81,44.81,0,0,0-.57-6.24,5.66,5.66,0,0,1,1.19-4.9,28.24,28.24,0,0,0,5.67-15.21c0-.48-.49-1-.76-1.53a7.08,7.08,0,0,0-.73,1.42c-.77,3-1.29,6.14-2.29,9.09-.66,1.94-2,3.66-3,5.48a19.33,19.33,0,0,1-1-4.43c-.78-4.17-1.56-8.33-2.44-12.48a8.1,8.1,0,0,0-1.2-2.1l-.78.35a32.81,32.81,0,0,1,1.25,4.37c1,6.58,2.15,13.15,2.71,19.77.7,8.34,1.15,16.72,1.19,25.09.08,17-.2,34-.29,51,0,1.54-.55,2.64-2.06,2.89-4.29.72-8.61,1.32-12.91,2,.11-2.61.33-5.23.31-7.84q-.06-7.86-.35-15.73c-.35-9-.72-17.92-1.22-26.87-.26-4.76-.72-9.51-1.24-14.25-.69-6.22-1.54-12.43-2.27-18.65s-1.43-12.19-2-18.29-1.35-12.49-1.47-18.75c-.17-9,.18-18.1.3-27.15l3.14-2.73q15-5.46,30.06-10.95c7.43-2.73,14.92-5.38,21.23-10.4a7.24,7.24,0,0,1,1.12,1.64A34.59,34.59,0,0,0,426,322.21a55.47,55.47,0,0,0,21,12.15,64.16,64.16,0,0,0,35,1.82,38,38,0,0,0,18.55-10c6.08-6,8.8-13.49,8.52-22.05,3.8,1.6,7.51,3.47,11.42,4.73,9.92,3.21,19.94,6.1,29.89,9.19,10.87,3.39,21.42,7.52,30.94,13.9,7.1,4.76,12.06,11.4,16.21,18.72,7.05,12.43,11.38,25.91,15.24,39.57A419.55,419.55,0,0,1,623,438.86c.76,4.79,1.24,9.62,2,14.4.45,2.68-.9,4.19-2.85,5.51-3.15,1.07-6.23,2.47-9.45,3.14-6.88,1.41-13.82,2.55-20.76,3.59-5.59.84-11.23,1.37-16.85,2-.17-11.81-.29-23.61-.54-35.42-.12-5.88-.51-11.76-.75-17.65a138.69,138.69,0,0,0-2.7-23.52,2.29,2.29,0,0,1,.17-1.51c3.24-5.83,3.74-12.19,3.64-18.65,0-.57-.53-1.13-.81-1.7a5.36,5.36,0,0,0-.67,1.65c-.2,2.87-.18,5.76-.47,8.62a20.89,20.89,0,0,1-2.52,8.27c-.29-1.06-.47-1.68-.63-2.31a63.5,63.5,0,0,0-7.39-18.12,13.08,13.08,0,0,0-1.92-1.95l-.57.48c.22.51.41,1,.65,1.52,1.89,3.86,4.11,7.59,5.62,11.6,4.49,11.88,5.56,24.41,6.38,37,.35,5.54.59,11.1.77,16.66.2,6.49.35,13,.39,19.47.07,10.18,0,20.36,0,30.54,0,.72-.07,1.44-.09,2.16-.09,2.68-.21,5.36-.22,8.05,0,.42.48.84.74,1.26l0,10.28Q574.17,520.76,574.15,537.29Z" transform="translate(-210.58 -102.34)"/><path class="cls-10" d="M692,378.36c0-.53.09-1.06.14-1.59,7.4.13,14.79.36,22.19.38,5,0,10-.35,14.93-.34q74.88.15,149.75.37c-.53,1.89-1,3.79-1.6,5.66q-8.52,26.81-17.07,53.59c-4.24,13.24-8.57,26.44-12.81,39.67-4.42,13.79-8.76,27.61-13.17,41.41q-5.24,16.38-10.54,32.75l-.43,0c-.56-.88-1.06-1.81-1.69-2.64-3.51-4.56-7.09-9.06-10.58-13.63-4.21-5.51-8.33-11.08-12.54-16.58-5.72-7.48-11.49-14.91-17.24-22.36-3.63-4.71-7.28-9.4-10.88-14.13q-10.53-13.8-21-27.62c-4.19-5.52-8.36-11.05-12.58-16.55-4.61-6-9.3-12-13.91-18-3.93-5.14-7.77-10.34-11.68-15.49q-7.17-9.45-14.39-18.86C695.27,382.38,693.6,380.38,692,378.36Z" transform="translate(-210.58 -102.34)"/><path class="cls-11" d="M414.14,223c-.11-1.09-.2-2.19-.33-3.28-.49-4-.28-7.87,1.67-11.49,4-7.5,13.2-8.72,19.22-2.48a57.45,57.45,0,0,1,4.17,5.6,44.77,44.77,0,0,0,3.45-5.74,65.32,65.32,0,0,0,2.85-8.79,12.18,12.18,0,0,1,6.75-8.21Q457.11,186,462.1,183A50,50,0,0,0,483,157.89c.24-.61.5-1.21.76-1.81,0-.1.18-.16,0,0,2.66,4,5.05,8.27,8.06,12,9.29,11.68,21.62,18,36.37,19.81,2.86.34,5.76.4,8.64.46,1.2,0,1.8.26,1.83,1.6.2,6.94.47,13.89.72,21.07-1.73-2-3-4-4.66-5.36a12.72,12.72,0,0,0-11.62-2.75,10.61,10.61,0,0,0-3,1.32c-1.14.72-2.16,1.73-1.53,3.25s2,1.2,3.23.84c5.31-1.61,9.79-.29,13.73,3.53.72.7,1.91.92,3.3,1.55-.16,2-.37,4.69-.58,7.34-1.16,5.76-2.14,11.56-3.52,17.27a104.52,104.52,0,0,1-12.23,30.11c-5.26,8.59-11.77,16.05-21.14,20.48a8.53,8.53,0,0,0-1.38,1.05,14.12,14.12,0,0,0-2.07.46,37.66,37.66,0,0,1-22.54,1.18c-7.76-1.89-14.41-5.94-20.5-11.05A50.86,50.86,0,0,1,438,253.3c-.5-2-1-3.89-1.46-5.84-.06-1-.12-2-.19-3-5.32,1.39-6.3,1.44-9,.26-4.74-2.1-7.42-6.14-9.38-10.61C416.45,230.49,415.42,226.68,414.14,223Zm20.42-4.32-1.9-.45a7.46,7.46,0,0,0-9.27,5.43c-1.1,3.74.86,10.43,3.95,12.75,2.08,1.57,4.38,2.24,7,.79a7.16,7.16,0,0,0,3.7-6.91,58.93,58.93,0,0,0-1.69-11.76,16.28,16.28,0,0,0-5.08-8.9c-2.1-1.76-4.37-3.05-7.17-2a7.54,7.54,0,0,0-5.27,7.32,45,45,0,0,0,0,4.93,14.16,14.16,0,0,0,.76,2.7l.71-.15c0-.94,0-1.88,0-2.83a42.67,42.67,0,0,1,.14-6.2c.52-3.29,4.29-5.48,7.14-4.27,4.2,1.79,6,5.4,7,9.58Zm53.3-3.35c0-4.27-2-7.09-4.92-7.58s-5.88,1.64-6.92,4.93c-1,3.09-.63,6,1.8,8.34a4.83,4.83,0,0,0,5.65.9A7.29,7.29,0,0,0,487.86,215.31Zm-5.33-20.64c-3.81.14-7.35,1-10.06,3.8-.68.71-.73,2-1.07,3.08a13.5,13.5,0,0,0,3,.07c2-.39,4-1.24,6.06-1.48,3.73-.43,6.86,1.25,9.79,3.38,1,.72,2.3,1.4,3.11.15a5.07,5.07,0,0,0,.25-3.21,3.86,3.86,0,0,0-1.22-1.74C489.73,195.89,486.31,194.82,482.53,194.67Zm43.41,19.63c-3.33,0-5.78,2.35-6.42,5.67s.9,6.4,3.51,7.39a5,5,0,0,0,5.54-1.48,7.43,7.43,0,0,0,1.49-8.23A4.83,4.83,0,0,0,525.94,214.3Zm-46.16,43.52a5.53,5.53,0,0,0,2.92,3.79c4.63,2.79,9.79,2.91,15,2.74.34,0,.66-.46,1-.71-.38-.27-.75-.74-1.15-.76-1.63-.09-3.28,0-4.91-.06-4.13-.23-8-1.17-11.14-4.12A8.85,8.85,0,0,0,479.78,257.82Zm18.7-16.41c1.47,1.41,3.13,1.7,4.48.69a4.43,4.43,0,0,0,1.67-3.19,19.63,19.63,0,0,0-1.47-5.18c-.1-.31-.65-.45-1-.67a3.63,3.63,0,0,0-.15,1.33,20.2,20.2,0,0,0,.85,2.19c1.18,3.07.31,4.44-2.87,4.57A11.08,11.08,0,0,0,498.48,241.41Z" transform="translate(-210.58 -102.34)"/><path class="cls-12" d="M575.07,467.53c5.62-.66,11.26-1.19,16.85-2,6.94-1,13.88-2.18,20.76-3.59,3.22-.67,6.3-2.07,9.45-3.14,1.39,5.44,2.8,10.87,4.17,16.31,1.57,6.2,3.1,12.4,4.69,18.59a12.69,12.69,0,0,0,1.12,2.32,59.71,59.71,0,0,0-17.6,13.18,2.15,2.15,0,0,0,1.88-.2c1.37-1.1,2.59-2.4,4-3.49,5.61-4.43,11.47-8.47,18.37-10.69a7.44,7.44,0,0,1,2.17-.07c-1.62,5.19-3.22,10.39-4.88,15.57-2.71,8.49-5.47,17-8.16,25.47-.34,1.07-.77,1.63-2,1.62-10.24-.06-20.48-.06-30.72-.07-.49-.53-1-1.09-1.48-1.59a66.81,66.81,0,0,1-14.3-20.28c-1.74-3.73-3.44-7.48-5.16-11.23l0-10.28a7.88,7.88,0,0,0,.73-2.25C575,483.63,575,475.58,575.07,467.53Z" transform="translate(-210.58 -102.34)"/><path class="cls-12" d="M509.1,304.11c.28,8.56-2.44,16.06-8.52,22.05a38,38,0,0,1-18.55,10,64.16,64.16,0,0,1-35-1.82,55.47,55.47,0,0,1-21-12.15,34.59,34.59,0,0,1-9.28-14.39,7.24,7.24,0,0,0-1.12-1.64c.77-.7,1.56-1.38,2.32-2.09,7.83-7.32,12.27-16.54,15-26.71,2.39-8.77,3.05-17.76,3.56-26.78a11,11,0,0,1,.35,1.87,51.54,51.54,0,0,0,5.92,22.38,47.76,47.76,0,0,0,16.33,18.73A43.77,43.77,0,0,0,481.77,301a49.47,49.47,0,0,0,20-3.53Z" transform="translate(-210.58 -102.34)"/><path class="cls-13" d="M938.13,542.8l-.84,7.49H879.77c-.58-6-1.14-12-1.74-18s-1.21-11.71-1.81-17.56c-.28-2.74-.55-5.47-.83-8.2h66.29c-.74,7.27-1.51,14.54-2.23,21.81C939,533.18,938.57,538,938.13,542.8Z" transform="translate(-210.58 -102.34)"/><path class="cls-8" d="M757.89,300.24c-8.44-.24-15.66-3.22-21.27-9.33a28,28,0,0,1-7.55-23.66,29.9,29.9,0,0,1,6.14-14.45,2.6,2.6,0,0,1,2.28-.71c2.81,1.06,5.54,2.35,8.29,3.57,4.79,2.13,9.54,4.34,14.37,6.37q12.66,5.33,25.41,10.43c1.31.53,1.25,1.4,1.11,2.34a29,29,0,0,1-5.12,13,27.81,27.81,0,0,1-16,11.13C763.07,299.59,760.45,299.83,757.89,300.24Z" transform="translate(-210.58 -102.34)"/><path class="cls-14" d="M879,377.18q-74.88-.19-149.75-.37c-5,0-10,.36-14.93.34-7.4,0-14.79-.25-22.19-.38a7,7,0,0,0-4-7,10.27,10.27,0,0,1,2-.4q90.61,0,181.24,0c4.39,0,7.2,2.05,7.87,5.81A7.37,7.37,0,0,1,879,377.18Z" transform="translate(-210.58 -102.34)"/><path class="cls-15" d="M941.68,506.57H875.39c-2.86-.66-4.32-2.39-4.35-5.19,0-2,0-3.94,0-5.9,0-3.53,2-5.52,5.65-5.52h32.64l28.76-.07h2.4c4,.33,5.54,2,5.56,6v4.89C946,504.15,945,505.55,941.68,506.57Z" transform="translate(-210.58 -102.34)"/><path class="cls-3" d="M909.33,490h-1.57a59,59,0,0,0-3-20.29c-.53-1.68-1.42-2-2.89-1.72-4.16.8-8.19,0-12.2-1.06a4.87,4.87,0,0,1-1.24-.59c-1.39-.83-2.47-2-1.93-3.68a3.72,3.72,0,0,1,3.54-2.64c4.5-.35,8.15,1.54,11.49,4.27.25.2.51.39.77.58,0,0,.11,0,.61-.13-1.57-2.75-3-5.45-4.62-8s-3.64-5-5.34-7.52c-.67-1-1.28-.88-2.29-.7-4.29.76-8.6,1.57-12.94,1.91-1.5.12-3.26-.8-4.62-1.68s-1.25-2.39,0-3.54c2.42-2.31,5.46-2.47,8.48-1.94,2.78.49,5.49,1.41,8.49,2.21a32,32,0,0,1-2.31-3.7c-1.47-3.23-3.29-5-7.37-4a13,13,0,0,1-10.06-1.67,8.18,8.18,0,0,1-2.77-2.9c-1-2,0-3.74,2.27-3.47a36.21,36.21,0,0,1,8.11,2c2.08.76,3.94,2.11,6.16,3-.81-1.29-1.7-2.53-2.41-3.87-2.27-4.26-4-8.67-3.89-13.63.1-3.09,1.46-5.17,3.8-5.79s4.55.64,4.77,3a77.59,77.59,0,0,1,.35,10.78c-.13,2.85-1.18,5.67-1.2,8.5,0,1.69,1,3.47,1.87,5.05a21.72,21.72,0,0,0,3.71,4.81c-.15-2-.34-4-.42-5.95-.17-3.81,0-7.61,1.74-11.09a5.93,5.93,0,0,1,2.55-2.32,2.57,2.57,0,0,1,4,1.89,14.63,14.63,0,0,1,.37,5.25c-1,5.49-2,11-6.48,14.88,3.66,5.55,7.23,11,10.77,16.35a53.1,53.1,0,0,1-.26-5.32,68.7,68.7,0,0,1,.82-9.07,4.1,4.1,0,0,1,4.06-3.62c1.81.05,3.36,1.47,3.8,3.92,1.1,6-.74,11.29-4.38,15.95-1.59,2-2.32,3.6-1.29,6.36,1.42,3.81,1.89,8,2.67,11.56,1.55-4.67,3-9.84,5-14.76s4.55-9.29,6.84-13.93c.31-.64.49-1.33.74-2,.38-.11,1-.11,1.1-.35a16.48,16.48,0,0,0,.74-2.35c1.6-2.25,3.14-4.54,4.82-6.73a30.26,30.26,0,0,1,2.74-2.81c0,.34,0,.68.07,1-2.28,3.39-4.58,6.76-6.84,10.16-.57.86-1,1.8-1.53,2.7l-1.07,1.34c-2,4-4,8-6,12a15.93,15.93,0,0,0-.82,2.78c-.38.63-.76,1.26-1.13,1.89-1.25,4.84-2.53,9.67-3.73,14.52C909.64,487.25,909.54,488.62,909.33,490Z" transform="translate(-210.58 -102.34)"/><path class="cls-16" d="M501.73,297.5a49.47,49.47,0,0,1-20,3.53,43.77,43.77,0,0,1-22.62-7.45,47.76,47.76,0,0,1-16.33-18.73,51.54,51.54,0,0,1-5.92-22.38,11,11,0,0,0-.35-1.87c0-1,0-2.09,0-3.14.48,1.95,1,3.89,1.46,5.84a50.86,50.86,0,0,0,16.85,26.95c6.09,5.11,12.74,9.16,20.5,11.05a37.66,37.66,0,0,0,22.54-1.18,14.12,14.12,0,0,1,2.07-.46Z" transform="translate(-210.58 -102.34)"/><path class="cls-8" d="M559.57,286c.06,6.5-4.56,11.85-11.54,11.84a11.4,11.4,0,0,1-11.72-11.71,11.52,11.52,0,0,1,11.76-11.81C554.32,274.3,560,279.84,559.57,286Z" transform="translate(-210.58 -102.34)"/><path class="cls-6" d="M695.26,355.51H663.32c-3.93,0-5.81-1.86-5.82-5.78q0-17.14,0-34.3c0-4.29,1.81-6,6.17-6h63.27c4.34,0,6.08,1.74,6.08,6.1v33.91c0,4.43-1.66,6.12-6,6.12Zm.13-44.94H663.64c-3.57,0-4.75,1.17-4.75,4.69q0,17.14,0,34.3c0,3.55,1.18,4.75,4.71,4.75h63.48c3.44,0,4.75-1.32,4.76-4.79q0-17.05,0-34.11c0-3.55-1.33-4.85-4.9-4.85Z" transform="translate(-210.58 -102.34)"/><path class="cls-8" d="M958.64,484.46l-.41.38c-4.61-.32-8.1-2.44-9.5-6.92a9.47,9.47,0,0,1,7.16-12.33c5.5-1,6.51.23,5.36,5.66q-1.31,6.11-2.59,12.23A4.56,4.56,0,0,0,958.64,484.46Z" transform="translate(-210.58 -102.34)"/><path class="cls-17" d="M923.46,449a16.48,16.48,0,0,1-.74,2.35c-.12.24-.72.24-1.1.35a25.59,25.59,0,0,1-7.93-19.86,3.66,3.66,0,0,1,2.86-3.75c1.93-.24,3,1,3.81,2.53,2.5,4.84,3.21,10.06,3.15,15.43C923.5,447.06,923.48,448.05,923.46,449Z" transform="translate(-210.58 -102.34)"/><path class="cls-8" d="M648.68,415.9a6.51,6.51,0,0,1-13,0,6.5,6.5,0,0,1,6.82-6.78A6.43,6.43,0,0,1,648.68,415.9Z" transform="translate(-210.58 -102.34)"/><path class="cls-17" d="M931.09,440.51c0-.34-.05-.68-.07-1h0l2-1.14.4-.44v0c2.43-.71,4.83-1.74,7.31-2a76.24,76.24,0,0,1,10.69-.31c1.49,0,3.11.75,3.21,2.59a3.12,3.12,0,0,1-2.7,3.21,41.33,41.33,0,0,1-9.44.95C938.65,442.13,934.88,441.16,931.09,440.51Z" transform="translate(-210.58 -102.34)"/><path class="cls-17" d="M942,425.63c.54-3.8,1-7.62,1.7-11.38a9.84,9.84,0,0,1,2-3.74c1.17-1.55,2.83-2.25,4.67-1.27s2,2.75,1.74,4.45c-.9,5.72-3.63,10.16-9.26,12.39Z" transform="translate(-210.58 -102.34)"/><path class="cls-17" d="M913.7,471.42c.37-.63.75-1.26,1.13-1.89,2.24-1.21,4.44-2.47,6.72-3.6a17,17,0,0,1,9-1.59,6.2,6.2,0,0,1,2.08.49c2,.91,2.53,3.15.73,4.35a12.88,12.88,0,0,1-5.74,2.14c-3.83.33-7.7.12-11.55.13C915.27,471.45,914.48,471.43,913.7,471.42Z" transform="translate(-210.58 -102.34)"/><path class="cls-17" d="M932.66,436.66c-3.6-4-5.11-8.78-5.43-14a17.16,17.16,0,0,1,.87-5.55,2.77,2.77,0,0,1,1.91-1.59,2.37,2.37,0,0,1,1.86,1.33,60.46,60.46,0,0,1,2.2,9,66,66,0,0,1,.08,8.44l0,0-.33.4Z" transform="translate(-210.58 -102.34)"/><path class="cls-17" d="M921.65,454.71l1.07-1.34c5.46-1.63,11-2.32,16.57-.81,2.5,1.27,3,2.78,1.43,4.62-.33.39-.69.76-1,1.13-5.28,1.45-10-.66-14.75-2.39C923.84,455.53,922.74,455.11,921.65,454.71Z" transform="translate(-210.58 -102.34)"/><path class="cls-8" d="M883.3,345.73a5.52,5.52,0,1,1-5.39-5.61A5.65,5.65,0,0,1,883.3,345.73Z" transform="translate(-210.58 -102.34)"/><path class="cls-8" d="M617.92,318.79c0-3.31,2.15-5.51,5.36-5.48a5.69,5.69,0,0,1,5.29,5.1c0,3.34-2.05,5.53-5.26,5.55A5,5,0,0,1,617.92,318.79Z" transform="translate(-210.58 -102.34)"/><path class="cls-18" d="M640.91,494.72a7.44,7.44,0,0,0-2.17.07c-6.9,2.22-12.76,6.26-18.37,10.69-1.39,1.09-2.61,2.39-4,3.49a2.15,2.15,0,0,1-1.88.2A59.71,59.71,0,0,1,632.11,496l9.44-3.33C641.34,493.35,641.12,494,640.91,494.72Z" transform="translate(-210.58 -102.34)"/><path class="cls-8" d="M909.41,342.75c-.32.3-.63.82-.93.81-.59,0-1.44-.11-1.71-.5-2.74-4-5.44-8.1-8-12.23-.34-.56.07-1.58.13-2.39.63.29,1.51.4,1.85.89,2.65,3.79,5.2,7.66,7.75,11.51A15.6,15.6,0,0,1,909.41,342.75Z" transform="translate(-210.58 -102.34)"/><path class="cls-8" d="M937.75,429.65c-.81-4.86-1.58-9.74-2.49-14.58-.2-1.08,0-1.8,1-1.86a2,2,0,0,1,1.44,1.25c.88,4.25,1.62,8.54,2.4,12.81Z" transform="translate(-210.58 -102.34)"/><path class="cls-8" d="M939.68,458.31c.35-.37.71-.74,1-1.13,1.54-1.84,1.07-3.35-1.43-4.62.07-1.46.18-2.92.2-4.38a16.68,16.68,0,0,1-.1-2.9c.11-.53.88-.93,1.36-1.39.42.44,1.2.87,1.22,1.32q.33,7.83.4,15.66c0,.36-.84,1-1.29,1a1.73,1.73,0,0,1-1.3-1A10.19,10.19,0,0,1,939.68,458.31Z" transform="translate(-210.58 -102.34)"/><path class="cls-8" d="M940.49,489.89h-2.4c.41-4.41.78-8.83,1.26-13.23,0-.46.75-.84,1.14-1.27.39.49,1.15,1,1.12,1.47-.22,3.83-.59,7.66-.92,11.49C940.64,488.86,940.56,489.38,940.49,489.89Z" transform="translate(-210.58 -102.34)"/><path class="cls-8" d="M765.87,328.3a2.92,2.92,0,0,1,2.68,2.59,2.74,2.74,0,1,1-2.68-2.59Z" transform="translate(-210.58 -102.34)"/><path class="cls-3" d="M937.75,429.65l2.34-2.38,1.88-1.64.87.45-9.45,11.86v0c-.13.15-.26.3-.4.44l-2,1.14,1.64-2.83,1.18-1.92.33-.4,0,0Z" transform="translate(-210.58 -102.34)"/><path class="cls-8" d="M930.58,395.81l2.82,0a24.26,24.26,0,0,1,.51,3,4.76,4.76,0,0,1-.53,1.58c-.65-.27-1.65-.37-1.86-.83A21.78,21.78,0,0,1,930.58,395.81Z" transform="translate(-210.58 -102.34)"/><path class="cls-1" d="M436.57,247.46c0,1,0,2.09,0,3.14-.51,9-1.17,18-3.56,26.78-2.77,10.17-7.21,19.39-15,26.71-.76.71-1.55,1.39-2.32,2.09-6.31,5-13.8,7.67-21.23,10.4q-15,5.52-30.06,10.95l1.17-2c1.17-1.48,2.38-2.92,3.49-4.44,5.49-7.58,9.56-15.64,8.39-25.42a14.08,14.08,0,0,0-6-10.37c-.47-.62-.82-1.58-1.44-1.81-2.22-.84-4.53-1.43-6.81-2.12.45-4.93.87-9.87,1.37-14.81.56-5.51,1.21-11,1.8-16.52.52-4.92,1-9.86,1.48-14.79.39-3.95.23-7.75-3.08-10.63,4.15-3.26,8.2-6.66,12.47-9.74,4.93-3.55,10-6.89,15.12-10.18,3.85-2.47,7.83-4.74,11.77-7a10.36,10.36,0,0,1,2-.69c1.2,5,2.17,10.14,3.66,15.08,1.12,3.75,2.9,7.3,4.38,10.94,1.28,3.7,2.31,7.51,3.89,11.09,2,4.47,4.64,8.51,9.38,10.61,2.67,1.18,3.65,1.13,9-.26C436.45,245.46,436.51,246.46,436.57,247.46ZM393.15,265.3c-.39,4,3.12,7.8,7.75,7.76,3.62,0,7.43-4,7.19-7.73-.25-3.93-3.68-7.43-7.13-7.29C396.32,258.23,393.17,261,393.15,265.3ZM388,220.23a4.81,4.81,0,0,0,4.93,5.14,5.3,5.3,0,0,0,5.33-5.13,5.13,5.13,0,0,0-5.31-5.13A4.81,4.81,0,0,0,388,220.23Z" transform="translate(-210.58 -102.34)"/><path class="cls-17" d="M296.29,460.54c-3.29-3.8-6.44-7.74-9.91-11.36-4.71-4.91-9.51-9.74-14.57-14.28a116.63,116.63,0,0,0-12.63-9.85A133.5,133.5,0,0,0,246.73,418c-1.32-.7-2.26-1.46-2.48-3-.71-3.72-1.32-7.47-2.18-11.16-.39-1.65-.11-2.32,1.64-2.33a18.28,18.28,0,0,0,2.71-.4L262,399.48l0-.62-14.59-3.68c-1.74-.55-3.47-1.14-5.23-1.63a2.44,2.44,0,0,1-2.06-2.22q-5.17-28.2-10.48-56.39a8.73,8.73,0,0,1,0-1.24c3.5,1.13,6.92,2,10.12,3.32,8.34,3.5,16.58,7.23,24.86,10.87a1.23,1.23,0,0,0,.39,0c3.28,1.78,6.54,3.57,9.84,5.31a2,2,0,0,1,1.2,2.38q-.7,3.86-1.34,7.71c-.56,3.35-1.08,6.71-1.62,10.07a68.66,68.66,0,0,0,4.76-7.65l4.55-8.2,6.67,3.86,2.34,1.62c3,2.8,6.21,5.45,9,8.43,4.8,5.07,4.4,3,1.16,9.22-1.9,3.62-3.84,7.21-5.76,10.82a2.66,2.66,0,0,0,1.58-.81c3.5-3.35,7.06-6.66,10.47-10.11,1.2-1.21,2-1.12,3,.09s2,2.22,3.05,3.32c-1.86,8.61-4.09,17.16-5.49,25.85-1.93,12-3.25,24-4.83,36.07-3-6.5-6-13-8.83-19.53A3.36,3.36,0,0,1,295,424c4.23-9.33,8.52-18.62,12.77-27.94a16.84,16.84,0,0,0,.68-2.36l-.95-.37q-7,15-14,30c-4.31-8-8.41-15.81-12.81-23.47a7.11,7.11,0,0,1-.68-6.23c2.2-7.21,4.22-14.48,6.26-21.73.14-.5-.18-1.13-.28-1.7-.37.45-.94.83-1.09,1.34-2,6.91-4,13.85-6,20.77-.22.77-.47,1.53-.75,2.44a4.12,4.12,0,0,1-.69-.61c-4.63-7.16-9.26-14.32-13.83-21.51a4.8,4.8,0,0,1-.65-2.38c-.06-5.19,0-10.38-.06-15.57a10.6,10.6,0,0,0-.51-2.32l-.88.11v16.21c-3.08-3.41-5.52-7-8.35-10.24-6.24-7.17-12.66-14.19-19-21.23-.34-.37-1.06-.4-1.6-.59.17.55.19,1.26.54,1.63,1.12,1.19,2.49,2.17,3.55,3.4q9.33,10.79,18.54,21.67c1.6,1.9,2.94,4,4.41,6.05a2.36,2.36,0,0,1-1.58,0c-5.94-2.09-11.87-4.19-17.82-6.25a14.58,14.58,0,0,0-2.21-.39l-.23.79a21.07,21.07,0,0,0,2.07,1c6.84,2.48,13.69,4.92,20.52,7.44a4.42,4.42,0,0,1,1.95,1.52c3.14,4.53,6.23,9.08,9.25,13.69,1.75,2.66,3.32,5.43,5.13,8.42-3.85-1-7.34-1.78-10.78-2.76-6.12-1.74-12.2-3.6-18.3-5.37a13.25,13.25,0,0,0-2.19-.28l-.17.77a13.4,13.4,0,0,0,1.78.79c9.69,2.81,19.4,5.55,29.07,8.44a5.05,5.05,0,0,1,2.73,2.21c4.1,7.4,8.06,14.88,12,22.36a23.12,23.12,0,0,1,1,2.47c-7.3-2.12-14.26-4.15-21.23-6.16s-13.73-4.13-20.85-5.4a2.13,2.13,0,0,0,1.31,1.24c13.45,4,26.92,7.9,40.36,11.9a3.55,3.55,0,0,1,2,1.57c1.58,3.1,3,6.27,4.43,9.44,1.83,4.06,3.62,8.14,5.43,12.2l-.63,12.4Z" transform="translate(-210.58 -102.34)"/><path class="cls-7" d="M289,361.41l-6.67-3.86-4.55,8.2a68.66,68.66,0,0,1-4.76,7.65c.54-3.36,1.06-6.72,1.62-10.07q.63-3.85,1.34-7.71a2,2,0,0,0-1.2-2.38c-3.3-1.74-6.56-3.53-9.84-5.31,3.86-7.41,7.68-14.86,11.65-22.22.73-1.35.6-2.13-.46-3a11.6,11.6,0,0,1-4.39-9.1c0-5.79,4.06-11.84,11-12.5,3.35-.31,5.21.19,8.29,1.81,1.44-1.88,2.87-3.81,4.37-5.69,6.76-8.48,13.43-17,20.35-25.38,4-4.79,8.33-9.24,12.56-13.8,1.41-1.51,3-2.88,4.44-4.32q.58,5.91,1.16,11.82c0,1.57,0,3.15,0,4.72-4.33-1.05-6.35-.51-8.28,2.23-2.31.43-2.48,2.3-2.76,4.1-.7-.12-1.41-.19-2.1-.36-4.35-1.09-7.21,1.43-8,5.09-.28,1.27-.39,2.58-.58,3.87-1.12,1.65-.14,3.24.15,4.85l.11,1.18V292c-.3,6.72-.63,13.47.73,20.12.88,4.28,2,8.53,5.14,11.87.25.66.33,1.51.8,1.95,1.21,1.14,2.58,2.1,3.9,3.14-.45,5.48-.76,11-1.36,16.43-.92,8.31-2,16.6-3.07,24.9a15.34,15.34,0,0,0-.83,1.74c-1.31,3.95-2.6,7.92-3.89,11.88-1-1.1-2.09-2.16-3.05-3.32s-1.78-1.3-3-.09c-3.41,3.45-7,6.76-10.47,10.11a2.66,2.66,0,0,1-1.58.81c1.92-3.61,3.86-7.2,5.76-10.82,3.24-6.19,3.64-4.15-1.16-9.22-2.82-3-6-5.63-9-8.43a29.09,29.09,0,0,0,.74-4.4c0-.62-.8-1.26-1.23-1.89-.48.53-1.17,1-1.38,1.61A16.14,16.14,0,0,0,289,361.41Zm1.9-58.08c-1.24,1.8-2.47,3.49-3.6,5.24-2.89,4.5-5.79,9-8.58,13.58-1.12,1.82-.84,2.27,1.16,2.9,5.84,1.85,11.63-.13,14.79-5.06C298.09,314.72,297,306.5,290.94,303.33Zm6.34,24.07c-.14-.17-.49-.93-.88-1a2.22,2.22,0,0,0-1.71.77,4.81,4.81,0,0,0-.49,2.06c-.6,4.25-1.23,8.5-1.73,12.76-.07.63.49,1.33.76,2,.57-.5,1.55-.94,1.66-1.52C295.75,337.64,296.45,332.75,297.28,327.4Zm-.16-15.91,1.35,1.78c.41-.41,1.09-.77,1.18-1.24,1-4.79,1.87-9.6,2.66-14.42.1-.58-.57-1.29-.88-1.94-.57.41-1.53.74-1.64,1.24C298.85,301.58,298.05,306.27,297.12,311.49Z" transform="translate(-210.58 -102.34)"/><path class="cls-19" d="M334,265.54q-.58-5.91-1.16-11.82c-.32-4.23-.76-8.45-.92-12.69-.18-4.47-1.3-8.95.16-13.43,1-3,3-4.93,5.34-5a4.13,4.13,0,0,1,4.28,2.85,37.08,37.08,0,0,1,1.72,7c.46,3,.62,6.11.92,9.16a10.59,10.59,0,0,0,0,1.38c1.09,8,2.16,16,3.32,24.05a40.05,40.05,0,0,0,1.33,4.88l.65-.05a8.43,8.43,0,0,0,.88-1.88c.6-3.14,1.22-6.28,1.64-9.45.6-4.46,1.07-8.94,1.52-13.42.48-4.75.87-9.5,1.29-14.25a43.39,43.39,0,0,1,1.41-4.67c1.63-3.86,4.22-4.89,8.4-3.53,3.31,2.88,3.47,6.68,3.08,10.63-.48,4.93-1,9.87-1.48,14.79-.59,5.51-1.24,11-1.8,16.52-.5,4.94-.92,9.88-1.37,14.81a32,32,0,0,0-24.64,8.73c-1.14-7.25-2.21-14.2-3.36-21.14A21.13,21.13,0,0,0,334,265.54Z" transform="translate(-210.58 -102.34)"/><path class="cls-7" d="M354.92,232.82c-.42,4.75-.81,9.5-1.29,14.25-.45,4.48-.92,9-1.52,13.42-.42,3.17-1,6.31-1.64,9.45a8.43,8.43,0,0,1-.88,1.88l-.65.05a40.05,40.05,0,0,1-1.33-4.88c-1.16-8-2.23-16-3.32-24.05a10.59,10.59,0,0,1,0-1.38c1.46-1.15,2.95-2.28,4.39-3.47C350.78,236.36,352.84,234.58,354.92,232.82Z" transform="translate(-210.58 -102.34)"/><path class="cls-7" d="M247.39,395.18,262,398.86l0,.62-15.54,1.65C246.74,399.15,247.07,397.17,247.39,395.18Z" transform="translate(-210.58 -102.34)"/><path class="cls-7" d="M321.14,237.82a13.34,13.34,0,0,1-.44,1.37c-2,4.33-3.93,8.67-6,12.95-.28.56-1.22.79-1.86,1.17-.19-.63-.72-1.4-.52-1.86,2-4.74,4.14-9.44,6.31-14.11a1.79,1.79,0,0,1,1.52-.77C320.57,236.67,320.86,237.44,321.14,237.82Z" transform="translate(-210.58 -102.34)"/><path class="cls-7" d="M393.58,186.07l1.52,1.3c-.43.47-.78,1.22-1.3,1.37-4.56,1.34-9.13,2.63-13.73,3.78a2.43,2.43,0,0,1-2.18-.74c-.5-1,.18-1.77,1.36-2.06C383.93,188.56,388.59,187.34,393.58,186.07Z" transform="translate(-210.58 -102.34)"/><path class="cls-7" d="M309.5,266.59c-1.42,5.42-2.68,10.36-4.05,15.27-.12.43-1,.66-1.48,1-.36-.57-1.12-1.24-1-1.68,1.29-5,2.7-10,4.17-14.92.12-.41,1.11-1,1.4-.83C309.06,265.67,309.36,266.39,309.5,266.59Z" transform="translate(-210.58 -102.34)"/><path class="cls-7" d="M349.78,205.41c-.2-.5-.62-1-.55-1.49a2.28,2.28,0,0,1,.88-1.55c3.1-1.82,6.24-3.57,9.4-5.28a20.16,20.16,0,0,1,3.75-1.65c.59-.18,1.35.21,2,.34-.26.64-.34,1.61-.81,1.86-3.67,2-7.42,3.81-11.14,5.7-1,.49-1.95,1-2.92,1.55Z" transform="translate(-210.58 -102.34)"/><path class="cls-7" d="M338,211.41c.38.33.94.59,1,.89a2.34,2.34,0,0,1-.44,1.57c-1.17,1.41-2.49,2.68-3.66,4.09-1.89,2.25-3.75,4.52-5.5,6.87-.7.92-1.48,1.31-2.24.54a2.13,2.13,0,0,1,.06-2.07c3.12-3.77,6.35-7.45,9.58-11.13A5.45,5.45,0,0,1,338,211.41Z" transform="translate(-210.58 -102.34)"/><path class="cls-12" d="M318.61,370.37c1-8.3,2.15-16.59,3.07-24.9.6-5.46.91-11,1.35-16.43,3.44,1.19,6.6,3.27,10.53,3.21a2.76,2.76,0,0,0-1.27-1.2c-3-1.36-6.11-2.59-9.08-4.05a49.49,49.49,0,0,1-4.87-3.05c-3.15-3.34-4.26-7.59-5.14-11.87-1.36-6.65-1-13.4-.73-20.12.48.67,1,1.33,1.43,2,1.53,2.36,3.2,4.43,6.33,4.77a5.67,5.67,0,0,0,6.25-3.56c5.7,4.42,6.23,4.49,10.79,1.62,2.9,4.37,7.59,3.78,12.06,4-5,9-5.49,10.59-3.81,12.72.27-1,.5-1.88.7-2.72,1.33-5.5,3.85-10,9.63-11.94a12.8,12.8,0,0,0,2.77-1.44c.32-.2.43-.74.64-1.12a2.62,2.62,0,0,0-1.91.25c-4.19,2.49-8.8,2.85-13.5,2.57-2.39-.15-4.39-1.21-5.24-3.52-.79-2.13.42-3.81,1.95-5.17a24.78,24.78,0,0,1,3.84-3c7.43-4.36,15.29-5.93,23.71-3.24,1.11.36,2.2.79,3.3,1.18a14.08,14.08,0,0,1,6,10.37c1.17,9.78-2.9,17.84-8.39,25.42-1.11,1.52-2.32,3-3.49,4.44-.51.07-1.2-.06-1.5.22a29.54,29.54,0,0,1-13.29,6.81c-.48.13-.85.69-1.27,1.06.55.1,1.18.44,1.64.29,3.39-1.16,6.74-2.42,10.11-3.65-.12,9.05-.47,18.11-.3,27.15.12,6.26.87,12.51,1.47,18.75s1.3,12.2,2,18.29,1.58,12.43,2.27,18.65c.52,4.74,1,9.49,1.24,14.25.5,8.95.87,17.91,1.22,26.87q.3,7.86.35,15.73c0,2.61-.2,5.23-.32,7.84l-.09,1.52-.39,7.14a9.4,9.4,0,0,0-.71,1.76c-1,5.65-1.54,11.41-3,16.92-2.42,9-5.71,17.54-12.07,24.7-4.82,5.41-10.51,8.63-17.75,9.08a11.48,11.48,0,0,1-9.84-4,45.68,45.68,0,0,1-6.67-9.81c-4.38-9.22-6.52-19.13-7.87-29.21-.39-2.89-.76-5.78-1.13-8.67l-.12-1.89c-.11-2-.22-4-.34-6-.12-2.35-.39-4.71-.33-7.05q.29-11.51.79-23c.13-3.06.53-6.12.86-9.17.46-4.28,1-8.55,1.46-12.83.44-4.09.8-8.19,1.27-12.27.73-6.29,1.51-12.57,2.29-18.85.6-4.85,1.26-9.7,1.85-14.56C317.79,377.9,318.19,374.13,318.61,370.37Z" transform="translate(-210.58 -102.34)"/><path class="cls-1" d="M272.89,550.29C268.57,544.06,264,538,260,531.56a93.51,93.51,0,0,1-7.22-15.19c-2.56-6.69-4.55-13.6-6.76-20.42a13.24,13.24,0,0,1-.31-2.11,17.55,17.55,0,0,1,2.41,1.63c4.13,3.91,8.22,7.87,12.3,11.83a4.41,4.41,0,0,1,.65,1.17c.37,5.51,2.75,10.43,4.63,15.5a1.7,1.7,0,0,0,1.58.55A1.73,1.73,0,0,0,268,523c-.2-1.07-.75-2.08-1.06-3.14-.81-2.73-1.58-5.48-2.36-8.23,3.15,3.4,6.42,6.7,9.42,10.24a155.81,155.81,0,0,1,17.19,25.72,20.61,20.61,0,0,1,1,2.72Zm6.74-6.19a2.37,2.37,0,0,0-.2-.75c-1.51-2.19-3-4.41-4.6-6.51-.25-.32-1.23-.28-1.78-.1a1.43,1.43,0,0,0-.45,1.29q2.36,3.45,4.92,6.75c.22.29,1,.33,1.42.21S279.45,544.35,279.63,544.1Z" transform="translate(-210.58 -102.34)"/><path class="cls-20" d="M309.48,485.35l.12,1.89c-.43,7.78-.84,15.57-1.29,23.35-.18,3.07-.71,6.14-.63,9.2.08,3.21-1.23,6.48.49,9.66a41.28,41.28,0,0,1,2.58,5.95c1.76,4.93,3.4,9.9,5.09,14.86l-1.49,0c-2.66-7.11-5.29-14.24-8-21.33a2.73,2.73,0,0,0-1.78-1.22c-8.48-2-17-3.83-25.47-5.8a10.64,10.64,0,0,1-2.47-1.34,11,11,0,0,1,2.68-.06c8.38,1.83,16.75,3.72,25.11,5.59a5.45,5.45,0,0,0,.88,0c-2.58-4.81-4.9-9.52-7.58-14-3.62-6.09-7.54-12-11.27-18a4.21,4.21,0,0,0-4-2.15c-10.77-.06-21.54-.25-32.3-.45-.55,0-1.09-.54-1.64-.83a5.13,5.13,0,0,1,1.64-.63c10.37.11,20.74.28,31.12.43h2.57c-1.35-1.93-2.38-3.56-3.58-5.06-4.94-6.2-10-12.34-14.87-18.57-1.27-1.61-3-1.5-4.62-1.6-5.69-.37-11.39-.54-17.09-.85-6.27-.35-12.54-.76-18.81-1.17a2,2,0,0,1-1.5-.73c6.47-.63,12.89-.08,19.32.36s12.93.73,20.07,1.13c-2.13-2.47-3.77-4.63-5.67-6.53q-8.83-8.85-17.85-17.49a5,5,0,0,0-2.82-1.14c-7.36-.75-14.73-1.36-22.09-2.12a7.78,7.78,0,0,1-2.46-1.23,9.62,9.62,0,0,1,2.61-.43c6.77.67,13.53,1.42,20.3,2.15.25,0,.51,0,1.16-.07-5-5.93-11.51-9.92-16.87-15.09l.7-.81a192.21,192.21,0,0,1,18,15.09c-.24-7-.46-13.66-.67-20.27l1-.12a7.34,7.34,0,0,1,.54,1.75c.29,6,.67,12.05.69,18.08,0,2.14,1.2,3.13,2.44,4.35,5.05,5,10.1,9.93,15.09,15,2.3,2.31,4.44,4.78,7.11,7.67V432.45l.82-.07a12.83,12.83,0,0,1,.33,2c0,9.4,0,18.8.06,28.19a5.35,5.35,0,0,0,1.05,3c5.79,7.37,11.66,14.67,17.51,22,.27.34.52.69,1,1.31a22.79,22.79,0,0,0,.45-2.78c.31-7.4.58-14.8.89-22.21.07-1.63.2-3.27.37-4.89,0-.32.37-.6.56-.9.3.29.85.57.85.86,0,1.17-.17,2.34-.24,3.52q-.21,3.72-.37,7.46c-.29,6.48-.63,13-.78,19.45a6.59,6.59,0,0,0,1.11,3.61,237.3,237.3,0,0,1,17.35,29.26c.23.46.5.9,1,1.78.22-2.12.46-3.8.55-5.49.32-5.89.58-11.78.88-17.67.24-4.65.52-9.29.8-13.94C308.1,486.08,308.19,485.14,309.48,485.35Z" transform="translate(-210.58 -102.34)"/><path class="cls-13" d="M318.61,370.37c-.42,3.76-.82,7.53-1.28,11.28-.59,4.86-1.25,9.71-1.85,14.56-.78,6.28-1.56,12.56-2.29,18.85-.47,4.08-.83,8.18-1.27,12.27-.47,4.28-1,8.55-1.46,12.83-.33,3-.73,6.11-.86,9.17q-.51,11.48-.79,23c-.06,2.34.21,4.7.33,7.05-1.16-.11-2.34-.15-3.48-.35-2.76-.48-3-.74-3.15-3.51-.11-2.15-.07-4.3-.1-6.46s0-4.11.07-6.17l.15-1.49.63-12.41c.1-1,.21-2,.31-3.06,1.58-12,2.9-24.1,4.83-36.07,1.4-8.69,3.63-17.24,5.49-25.85,1.29-4,2.58-7.93,3.89-11.88A15.34,15.34,0,0,1,318.61,370.37Z" transform="translate(-210.58 -102.34)"/><path class="cls-8" d="M264.6,511.64c.78,2.75,1.55,5.5,2.36,8.23.31,1.06.86,2.07,1.06,3.14a1.73,1.73,0,0,1-.71,1.51,1.7,1.7,0,0,1-1.58-.55c-1.88-5.07-4.26-10-4.63-15.5l3.48,2.81-.14.11a2.4,2.4,0,0,0,.18.26Z" transform="translate(-210.58 -102.34)"/><path class="cls-17" d="M302.48,462.87q0,3.09-.07,6.17l-4.71-6.69Z" transform="translate(-210.58 -102.34)"/><path class="cls-21" d="M302.48,462.87l-4.78-.52-1.41-1.81,6.34.83Z" transform="translate(-210.58 -102.34)"/><path class="cls-1" d="M264.62,511.65a2.4,2.4,0,0,1-.18-.26l.14-.11C264.59,511.4,264.6,511.53,264.62,511.65Z" transform="translate(-210.58 -102.34)"/><path class="cls-22" d="M692,378.36c1.62,2,3.29,4,4.88,6.08q7.21,9.4,14.39,18.86c3.91,5.15,7.75,10.35,11.68,15.49,4.61,6,9.3,12,13.91,18,4.22,5.5,8.39,11,12.58,16.55q10.5,13.82,21,27.62c3.6,4.73,7.25,9.42,10.88,14.13,5.75,7.45,11.52,14.88,17.24,22.36,4.21,5.5,8.33,11.07,12.54,16.58,3.49,4.57,7.07,9.07,10.58,13.63.63.83,1.13,1.76,1.69,2.64H636.86c.26-1,.43-1.82.68-2.6q7.71-24.15,15.43-48.29,7.95-24.87,15.91-49.74c4.27-13.27,8.6-26.53,12.87-39.8,3-9.22,5.86-18.46,8.81-27.69C691,380.88,691.5,379.63,692,378.36Z" transform="translate(-210.58 -102.34)"/><path class="cls-15" d="M335.11,538.91c7.24-.45,12.93-3.67,17.75-9.08,6.36-7.16,9.65-15.75,12.07-24.7,1.48-5.51,2-11.27,3-16.92a9.4,9.4,0,0,1,.71-1.76c0,12.34.09,24.67,0,37-.06,6.47-.45,12.94-.77,19.41-.12,2.47-.48,4.93-.73,7.4H337.19c-.1-.85-.14-1.7-.3-2.53C336.32,544.79,335.71,541.85,335.11,538.91Z" transform="translate(-210.58 -102.34)"/><path class="cls-3" d="M335.11,538.91c.6,2.94,1.21,5.88,1.78,8.83.16.83.2,1.68.3,2.53H315.84c-1.69-5-3.33-9.93-5.09-14.86a41.28,41.28,0,0,0-2.58-5.95c-1.72-3.18-.41-6.45-.49-9.66-.08-3.06.45-6.13.63-9.2.45-7.78.86-15.57,1.29-23.35.37,2.89.74,5.78,1.13,8.67,1.35,10.08,3.49,20,7.87,29.21a45.68,45.68,0,0,0,6.67,9.81A11.48,11.48,0,0,0,335.11,538.91Z" transform="translate(-210.58 -102.34)"/><path class="cls-7" d="M574.19,504.21c1.72,3.75,3.42,7.5,5.16,11.23a66.81,66.81,0,0,0,14.3,20.28c.52.5,1,1.06,1.48,1.59l-21,0Q574.18,520.76,574.19,504.21Z" transform="translate(-210.58 -102.34)"/><path class="cls-23" d="M717.71,242.34c0,6.63.14,13.27,0,19.89-.1,4.27-4.13,8.18-8.42,8.56-1.76.16-3.54.26-5.31.26-29.56,0-59.13,0-88.7-.06a6.36,6.36,0,0,0-5.34,2.52c-4.27,4.9-8.65,9.7-13,14.54a5.36,5.36,0,0,0-.51.87l-.47-.21a10.81,10.81,0,0,1-.16-1.38c0-4.47,0-8.94,0-13.4,0-3,0-3.05-3-3-6.51.06-13,.14-19.51.14-5.51,0-9.23-2.48-10.63-7.07a13,13,0,0,1-.42-3.69q0-28.79,0-57.56c0-2.76-.05-5.52,0-8.27a9.66,9.66,0,0,1,9.38-9.34c14.25-.05,28.51,0,42.77,0a15,15,0,0,0,1.47.92c9.22,4.36,18.44,8.7,27.64,13.09a7.9,7.9,0,0,1,1.63,1.45q-18,0-36,.08c-9,0-18,0-27,.05-.74,0-1.47.68-2.21,1.05a6.73,6.73,0,0,0,2.24,1c3.08.12,6.17,0,9.25,0l59.27,0c5.79,3.63,11.6,7.22,17.37,10.9,2.16,1.38,4.22,2.93,6.33,4.4l-34.72.08c.09-1.5-.5-2.21-2.12-2.38-4.53-.47-9-1.16-13.56-1.65-.64-.07-1.36.43-2,.67.5.58.9,1.47,1.53,1.67a36.78,36.78,0,0,0,3.85.56c1.49.3,3,.75,4.43,1.14-5.12,0-10.24,0-15.35.07-.55,0-1.09.6-1.63.91.52.34,1,1,1.56,1q25.19.23,50.39.33c4.26,0,8.51-.16,12.77-.25l4.33,3.12h0c1,.66,2.06,1.35,3.13,2,7.16,4.05,14.31,8.1,21.49,12.09C711.46,239.14,714.6,240.71,717.71,242.34Zm-66.34-4.49q22.95,0,45.91,0c1,0,2.69.56,2.73-1s-1.66-1.08-2.67-1.08q-45.72,0-91.43,0a3.23,3.23,0,0,0-1.17,0,14.74,14.74,0,0,0-1.82,1,12.71,12.71,0,0,0,1.76,1.07,3.85,3.85,0,0,0,1.36,0ZM668,253.33c-9.92,0-19.84,0-29.75,0a6.59,6.59,0,0,0-2.2.92c.74.34,1.48.68,2.23,1a1.66,1.66,0,0,0,.59,0H697.2a5.72,5.72,0,0,0,1.76-.07c.4-.13.68-.63,1-1-.35-.31-.65-.75-1.06-.88a5,5,0,0,0-1.56,0Zm-75.53-45.25-1.27,1.06c.48.52.88,1.37,1.45,1.51q7.1,1.72,14.27,3.16c.53.1,1.23-.64,1.85-1-.41-.49-.75-1.32-1.25-1.44C602.7,210.25,597.86,209.24,592.46,208.08Z" transform="translate(-210.58 -102.34)"/><path class="cls-23" d="M717.73,227.31c-1.05-.18-2.12-.33-3.15-.58-.11,0-.08-1.08,0-1.09,1.06-.12,2.13-.17,3.2-.23C717.74,226,717.73,226.67,717.73,227.31Z" transform="translate(-210.58 -102.34)"/><path class="cls-23" d="M858.32,301c0,7.8.18,15.62-.15,23.41-.22,5.06-3.69,7.79-8.83,7.8q-20.49,0-41,0a4,4,0,0,0-3.36,1.51c-2.7,3.09-5.6,6-8.8,9.42V292.27c0-6.53,3.25-9.76,9.82-9.77l6.3,0c3.66,1.52,7.3,3.06,11,4.54q13.07,5.26,26.15,10.48C852.39,298.72,855.36,299.87,858.32,301Zm-26.41,6.26a4.61,4.61,0,1,0-4.44,4.68A4.83,4.83,0,0,0,831.91,307.3Zm17.5.16a4.6,4.6,0,0,0-4.52-4.71,4.61,4.61,0,0,0,0,9.22A4.6,4.6,0,0,0,849.41,307.46Zm-44.21,0a4.51,4.51,0,0,0,4.48,4.5,4.63,4.63,0,0,0,4.58-4.65,4.73,4.73,0,0,0-4.54-4.53A4.53,4.53,0,0,0,805.2,307.43Z" transform="translate(-210.58 -102.34)"/><path class="cls-23" d="M929.82,394.5c-9.59,0-19.18.06-28.77,0-2.25,0-3.36-1.05-3.74-3.27a14,14,0,0,1-.15-2.15V358.17c0-.33,0-.66,0-1,.18-4.3,1.17-5.24,5.5-5.23l33.51.05,3.51,5.05c0,11.36.07,22.72.06,34.08a3.35,3.35,0,0,1-3.39,3.39c-1.24.07-2.49,0-3.73,0-1-3.17-1.94-6.37-3.08-9.49-.26-.72-1.34-1.74-1.84-1.64-1.28.27-.94,1.4-.61,2.4C928,388.65,928.91,391.58,929.82,394.5Zm-7.45-22.81-8.66,9.83c-2.76-3.08-5.3-5.9-7.82-8.74-.85-1-1.79-1.75-3-.71s-.44,2,.32,2.9c3,3.34,6,6.64,8.92,10,1.17,1.31,2.25,1.08,3.32-.11l18.15-20.45c.87-1,1.7-2.11.45-3.25s-2.23.05-3.07,1q-3.74,4-7.44,8.09c-2.25-4.9-4.48-9.82-6.79-14.7-.18-.38-1.12-.8-1.38-.65a2.22,2.22,0,0,0-.85,1.49,3,3,0,0,0,.5,1.46c1.29,2.71,2.53,5.46,3.92,8.12C920,367.89,921.22,369.77,922.37,371.69Z" transform="translate(-210.58 -102.34)"/><path class="cls-8" d="M929.82,394.5c-.91-2.92-1.79-5.85-2.73-8.75-.33-1-.67-2.13.61-2.4.5-.1,1.58.92,1.84,1.64,1.14,3.12,2.07,6.32,3.08,9.49Z" transform="translate(-210.58 -102.34)"/><path class="cls-20" d="M939.68,357.06,936.17,352C939.1,352.28,940,353.62,939.68,357.06Z" transform="translate(-210.58 -102.34)"/><path class="cls-24" d="M575.07,467.53c-.05,8.05-.08,16.1-.18,24.15a7.88,7.88,0,0,1-.73,2.25c-.26-.42-.74-.84-.74-1.26,0-2.69.13-5.37.22-8.05,0-.72.09-1.44.09-2.16,0-10.18.06-20.36,0-30.54,0-6.49-.19-13-.39-19.47-.18-5.56-.42-11.12-.77-16.66-.82-12.54-1.89-25.07-6.38-37-1.51-4-3.73-7.74-5.62-11.6-.24-.5-.43-1-.65-1.52l.57-.48a13.08,13.08,0,0,1,1.92,1.95,63.5,63.5,0,0,1,7.39,18.12c.16.63.34,1.25.63,2.31a20.89,20.89,0,0,0,2.52-8.27c.29-2.86.27-5.75.47-8.62a5.36,5.36,0,0,1,.67-1.65c.28.57.8,1.13.81,1.7.1,6.46-.4,12.82-3.64,18.65a2.29,2.29,0,0,0-.17,1.51,138.69,138.69,0,0,1,2.7,23.52c.24,5.89.63,11.77.75,17.65C574.78,443.92,574.9,455.72,575.07,467.53Z" transform="translate(-210.58 -102.34)"/><path class="cls-24" d="M369.05,479.31l.09-1.52c4.31-.65,8.63-1.25,12.92-2,1.51-.25,2.05-1.35,2.06-2.89.09-17,.37-34,.29-51,0-8.37-.49-16.75-1.19-25.09-.56-6.62-1.73-13.19-2.71-19.77a32.81,32.81,0,0,0-1.25-4.37l.78-.35a8.1,8.1,0,0,1,1.2,2.1c.88,4.15,1.66,8.31,2.44,12.48a19.33,19.33,0,0,0,1,4.43c1-1.82,2.37-3.54,3-5.48,1-2.95,1.52-6.06,2.29-9.09a7.08,7.08,0,0,1,.73-1.42c.27.51.8,1.05.76,1.53a28.24,28.24,0,0,1-5.67,15.21,5.66,5.66,0,0,0-1.19,4.9,44.81,44.81,0,0,1,.57,6.24c.19,5,.37,10.09.43,15.13q.24,21.47.35,42.92c0,3.93-.21,7.86-.38,11.78-.11,2.49-1.42,4-4.57,4.59C377.1,478.41,373.06,478.78,369.05,479.31Z" transform="translate(-210.58 -102.34)"/><path class="cls-18" d="M361.2,330.26c-3.37,1.23-6.72,2.49-10.11,3.65-.46.15-1.09-.19-1.64-.29.42-.37.79-.93,1.27-1.06A29.54,29.54,0,0,0,364,325.75c.3-.28,1-.15,1.5-.22l-1.17,2Z" transform="translate(-210.58 -102.34)"/><path class="cls-2" d="M487.86,215.31a7.29,7.29,0,0,1-4.39,6.59,4.83,4.83,0,0,1-5.65-.9c-2.43-2.34-2.77-5.25-1.8-8.34,1-3.29,4.1-5.41,6.92-4.93S487.88,211,487.86,215.31Z" transform="translate(-210.58 -102.34)"/><path class="cls-18" d="M434.56,218.67c-1-4.18-2.77-7.79-7-9.58-2.85-1.21-6.62,1-7.14,4.27a42.67,42.67,0,0,0-.14,6.2c0,.95,0,1.89,0,2.83l-.71.15a14.16,14.16,0,0,1-.76-2.7,45,45,0,0,1,0-4.93,7.54,7.54,0,0,1,5.27-7.32c2.8-1,5.07.26,7.17,2a16.28,16.28,0,0,1,5.08,8.9A58.93,58.93,0,0,1,438,230.27a7.16,7.16,0,0,1-3.7,6.91c-2.58,1.45-4.88.78-7-.79-3.09-2.32-5-9-3.95-12.75a7.46,7.46,0,0,1,9.27-5.43l1.9.45.17.09Zm2.15,9.78-.18,0a13.66,13.66,0,0,0,0-2.56c-.31-1.57-.44-3.34-1.28-4.62-1.34-2-3.68-2.12-5.88-1.67s-4.12,1.76-4.5,4.13a12.8,12.8,0,0,0,2.66,10.71c2.81,3.36,7.24,2.47,8.58-1.73A24.62,24.62,0,0,0,436.71,228.45Z" transform="translate(-210.58 -102.34)"/><path class="cls-2" d="M482.53,194.67c3.78.15,7.2,1.22,9.9,4.05a3.86,3.86,0,0,1,1.22,1.74,5.07,5.07,0,0,1-.25,3.21c-.81,1.25-2.12.57-3.11-.15-2.93-2.13-6.06-3.81-9.79-3.38-2.05.24-4,1.09-6.06,1.48a13.5,13.5,0,0,1-3-.07c.34-1,.39-2.37,1.07-3.08C475.18,195.67,478.72,194.81,482.53,194.67Z" transform="translate(-210.58 -102.34)"/><path class="cls-2" d="M525.94,214.3a4.83,4.83,0,0,1,4.12,3.35,7.43,7.43,0,0,1-1.49,8.23,5,5,0,0,1-5.54,1.48c-2.61-1-4.13-4.18-3.51-7.39S522.61,214.29,525.94,214.3Z" transform="translate(-210.58 -102.34)"/><path class="cls-18" d="M479.78,257.82a8.85,8.85,0,0,1,1.69.88c3.14,2.95,7,3.89,11.14,4.12,1.63.09,3.28,0,4.91.06.4,0,.77.49,1.15.76-.33.25-.65.7-1,.71-5.19.17-10.35,0-15-2.74A5.53,5.53,0,0,1,479.78,257.82Z" transform="translate(-210.58 -102.34)"/><path class="cls-18" d="M498.48,241.41a11.08,11.08,0,0,1,1.51-.26c3.18-.13,4.05-1.5,2.87-4.57a20.2,20.2,0,0,1-.85-2.19,3.63,3.63,0,0,1,.15-1.33c.35.22.9.36,1,.67a19.63,19.63,0,0,1,1.47,5.18A4.43,4.43,0,0,1,503,242.1C501.61,243.11,500,242.82,498.48,241.41Z" transform="translate(-210.58 -102.34)"/><path class="cls-25" d="M695.39,310.57h31.54c3.57,0,4.9,1.3,4.9,4.85q0,17.06,0,34.11c0,3.47-1.32,4.78-4.76,4.79H663.59c-3.53,0-4.7-1.2-4.71-4.75q0-17.15,0-34.3c0-3.52,1.18-4.69,4.75-4.69Zm5.55,12.27h16.93c1.08,0,2.27.06,2.23-1.49s-1.18-1.34-2.18-1.34H684.26c-1.1,0-2.32,0-2.35,1.43s1.23,1.41,2.3,1.41Zm.09,22c5.51,0,11,0,16.53,0,1.06,0,2.48.33,2.53-1.37s-1.37-1.43-2.44-1.44H684c-1.24,0-2.43.28-2,1.82.14.5,1.35.95,2.07,1C689.75,344.91,695.39,344.88,701,344.88Zm.05-11H709c3.15,0,6.3.07,9.45-.07.59,0,1.15-.88,1.72-1.35-.58-.47-1.14-1-1.75-1.38-.18-.13-.51,0-.77,0H684.54a3.55,3.55,0,0,0-1.54.1c-.46.23-1.08.83-1,1.2a2.26,2.26,0,0,0,1.06,1.41c.38.24,1,.1,1.54.11Zm-27.36-15.08a2.74,2.74,0,0,0-2.77,2.71,2.84,2.84,0,0,0,2.8,2.7,2.56,2.56,0,0,0,2.59-2.66A2.5,2.5,0,0,0,673.72,318.78Zm2.63,13.68a2.52,2.52,0,0,0-2.73-2.65A2.47,2.47,0,0,0,671,332.4a2.8,2.8,0,0,0,2.65,2.85A2.73,2.73,0,0,0,676.35,332.46Zm0,11.09a2.52,2.52,0,0,0-2.63-2.73,2.76,2.76,0,0,0-2.76,2.7,3,3,0,0,0,2.62,2.71A2.75,2.75,0,0,0,676.34,343.55Z" transform="translate(-210.58 -102.34)"/><path class="cls-18" d="M371.41,285.3c-1.1-.39-2.19-.82-3.3-1.18-8.42-2.69-16.28-1.12-23.71,3.24a24.78,24.78,0,0,0-3.84,3c-1.53,1.36-2.74,3-1.95,5.17.85,2.31,2.85,3.37,5.24,3.52,4.7.28,9.31-.08,13.5-2.57a2.62,2.62,0,0,1,1.91-.25c-.21.38-.32.92-.64,1.12a12.8,12.8,0,0,1-2.77,1.44c-5.78,1.92-8.3,6.44-9.63,11.94-.2.84-.43,1.68-.7,2.72-1.68-2.13-1.16-3.76,3.81-12.72-4.47-.18-9.16.41-12.06-4-4.56,2.87-5.09,2.8-10.79-1.62a5.67,5.67,0,0,1-6.25,3.56c-3.13-.34-4.8-2.41-6.33-4.77-.45-.69-.95-1.35-1.43-2,0-.25,0-.49,0-.74s-.07-.79-.11-1.18c-.29-1.61-1.27-3.2-.15-4.85a5.27,5.27,0,0,1,.87,1.51c.63,3.52,1.5,6.92,4.34,9.42a5.37,5.37,0,0,0,5.85.81c1.31-.79,2.08-3.05,1.71-5.05-.94-5.06-2.52-10-2.06-15.29.28-1.8.45-3.67,2.76-4.1-.1.5-.19,1-.31,1.49-.4,1.55-1.29,3.13-1.14,4.61a71,71,0,0,0,2,11.32,21.15,21.15,0,0,0,3.19,5.92c1,1.56,2.81,1.65,4.44,1.13a3.84,3.84,0,0,0,2.81-3.47,34.25,34.25,0,0,0-.15-6.64c-.75-5.54-1.69-11.06-2.55-16.59,0-1.57,0-3.15,0-4.72a21.13,21.13,0,0,1,1.21,3.42c1.15,6.94,2.22,13.89,3.36,21.14a32,32,0,0,1,24.64-8.73c2.28.69,4.59,1.28,6.81,2.12C370.59,283.72,370.94,284.68,371.41,285.3Z" transform="translate(-210.58 -102.34)"/><path class="cls-8" d="M393.15,265.3c0-4.33,3.17-7.07,7.81-7.26,3.45-.14,6.88,3.36,7.13,7.29.24,3.71-3.57,7.69-7.19,7.73C396.27,273.1,392.76,269.28,393.15,265.3Z" transform="translate(-210.58 -102.34)"/><path class="cls-8" d="M388,220.23a4.81,4.81,0,0,1,5-5.12,5.13,5.13,0,0,1,5.31,5.13,5.3,5.3,0,0,1-5.33,5.13A4.81,4.81,0,0,1,388,220.23Z" transform="translate(-210.58 -102.34)"/><path class="cls-8" d="M289,361.41a16.14,16.14,0,0,1,.47-3.06c.21-.62.9-1.08,1.38-1.61.43.63,1.24,1.27,1.23,1.89a29.09,29.09,0,0,1-.74,4.4Z" transform="translate(-210.58 -102.34)"/><path class="cls-11" d="M334,270.26c.86,5.53,1.8,11.05,2.55,16.59a34.25,34.25,0,0,1,.15,6.64,3.84,3.84,0,0,1-2.81,3.47c-1.63.52-3.4.43-4.44-1.13a21.15,21.15,0,0,1-3.19-5.92,71,71,0,0,1-2-11.32c-.15-1.48.74-3.06,1.14-4.61.12-.49.21-1,.31-1.49C327.62,269.75,329.64,269.21,334,270.26Z" transform="translate(-210.58 -102.34)"/><path class="cls-8" d="M290.94,303.33c6,3.17,7.15,11.39,3.77,16.66-3.16,4.93-8.95,6.91-14.79,5.06-2-.63-2.28-1.08-1.16-2.9,2.79-4.57,5.69-9.08,8.58-13.58C288.47,306.82,289.7,305.13,290.94,303.33Z" transform="translate(-210.58 -102.34)"/><path class="cls-11" d="M322.93,276.59c-.46,5.25,1.12,10.23,2.06,15.29.37,2-.4,4.26-1.71,5.05a5.37,5.37,0,0,1-5.85-.81c-2.84-2.5-3.71-5.9-4.34-9.42a5.27,5.27,0,0,0-.87-1.51c.19-1.29.3-2.6.58-3.87.82-3.66,3.68-6.18,8-5.09C321.52,276.4,322.23,276.47,322.93,276.59Z" transform="translate(-210.58 -102.34)"/><path class="cls-8" d="M297.28,327.4c-.83,5.35-1.53,10.24-2.39,15.11-.11.58-1.09,1-1.66,1.52-.27-.67-.83-1.37-.76-2,.5-4.26,1.13-8.51,1.73-12.76a4.81,4.81,0,0,1,.49-2.06,2.22,2.22,0,0,1,1.71-.77C296.79,326.47,297.14,327.23,297.28,327.4Z" transform="translate(-210.58 -102.34)"/><path class="cls-8" d="M297.12,311.49c.93-5.22,1.73-9.91,2.67-14.58.11-.5,1.07-.83,1.64-1.24.31.65,1,1.36.88,1.94-.79,4.82-1.7,9.63-2.66,14.42-.09.47-.77.83-1.18,1.24Z" transform="translate(-210.58 -102.34)"/><path class="cls-18" d="M318.34,324a49.49,49.49,0,0,0,4.87,3.05c3,1.46,6.06,2.69,9.08,4.05a2.76,2.76,0,0,1,1.27,1.2c-3.93.06-7.09-2-10.53-3.21-1.31-1-2.68-2-3.89-3.14C318.67,325.46,318.59,324.61,318.34,324Z" transform="translate(-210.58 -102.34)"/><path class="cls-12" d="M312.37,290c0,.39.07.79.11,1.18C312.44,290.83,312.41,290.43,312.37,290Z" transform="translate(-210.58 -102.34)"/><path class="cls-8" d="M279.63,544.1c-.18.25-.37.79-.69.89s-1.2.08-1.42-.21q-2.56-3.3-4.92-6.75a1.43,1.43,0,0,1,.45-1.29c.55-.18,1.53-.22,1.78.1,1.62,2.1,3.09,4.32,4.6,6.51A2.37,2.37,0,0,1,279.63,544.1Z" transform="translate(-210.58 -102.34)"/><path class="cls-5" d="M645.1,200.59c1.18.09,2.35.24,3.53.24q24.6.1,49.21.18a3.59,3.59,0,0,1,1.36.07,1.41,1.41,0,0,1,.81.91c0,.3-.46.67-.79.92a1.43,1.43,0,0,1-.76.1c-9.45,0-18.9,0-28.36,0-6.48,0-13-.1-19.46-.16l-59.27,0c-3.08,0-6.17.07-9.25,0a6.73,6.73,0,0,1-2.24-1c.74-.37,1.47-1,2.21-1.05,9-.07,18,0,27-.05Q627.09,200.66,645.1,200.59Z" transform="translate(-210.58 -102.34)"/><path class="cls-5" d="M651.37,237.85H606a3.85,3.85,0,0,1-1.36,0,12.71,12.71,0,0,1-1.76-1.07,14.74,14.74,0,0,1,1.82-1,3.23,3.23,0,0,1,1.17,0q45.72,0,91.43,0c1,0,2.7-.52,2.67,1.08s-1.73,1-2.73,1Q674.32,237.88,651.37,237.85Z" transform="translate(-210.58 -102.34)"/><path class="cls-5" d="M674.34,218.16c7.66.05,15.32.06,23,.17.92,0,2.47-.78,2.55,1,0,.26-1.65.83-2.54.84-6,.09-11.92.07-17.88.08-4.26.09-8.51.27-12.77.25q-25.2-.09-50.39-.33c-.52,0-1-.63-1.56-1,.54-.31,1.08-.9,1.63-.91,5.11-.08,10.23-.06,15.35-.07h7.91Z" transform="translate(-210.58 -102.34)"/><path class="cls-5" d="M668,253.33h29.37a5,5,0,0,1,1.56,0c.41.13.71.57,1.06.88-.34.33-.62.83-1,1a5.72,5.72,0,0,1-1.76.07H638.86a1.66,1.66,0,0,1-.59,0c-.75-.31-1.49-.65-2.23-1a6.59,6.59,0,0,1,2.2-.92C648.15,253.31,658.07,253.33,668,253.33Z" transform="translate(-210.58 -102.34)"/><path class="cls-8" d="M592.46,208.08c5.4,1.16,10.24,2.17,15,3.29.5.12.84.95,1.25,1.44-.62.36-1.32,1.1-1.85,1q-7.17-1.42-14.27-3.16c-.57-.14-1-1-1.45-1.51Z" transform="translate(-210.58 -102.34)"/><path class="cls-8" d="M632.53,218.24h-.82c-1.47-.39-2.94-.84-4.43-1.14a36.78,36.78,0,0,1-3.85-.56c-.63-.2-1-1.09-1.53-1.67.68-.24,1.4-.74,2-.67,4.53.49,9,1.18,13.56,1.65,1.62.17,2.21.88,2.12,2.38h-7.09Z" transform="translate(-210.58 -102.34)"/><path class="cls-7" d="M683.78,223.4c-.46-2.16-.28-2.54,1.93-2.34,4.81.43,9.6,1,14.38,1.64.5.07.89,1,1.33,1.57-.57.28-1.16.83-1.71.78-5.32-.5-10.63-1.09-15.94-1.66Z" transform="translate(-210.58 -102.34)"/><path class="cls-26" d="M831.91,307.3a4.61,4.61,0,1,1-4.59-4.54A4.78,4.78,0,0,1,831.91,307.3Z" transform="translate(-210.58 -102.34)"/><path class="cls-26" d="M849.41,307.46a4.6,4.6,0,0,1-4.52,4.51,4.61,4.61,0,0,1,0-9.22A4.6,4.6,0,0,1,849.41,307.46Z" transform="translate(-210.58 -102.34)"/><path class="cls-26" d="M805.2,307.43a4.53,4.53,0,0,1,4.52-4.68,4.73,4.73,0,0,1,4.54,4.53,4.63,4.63,0,0,1-4.58,4.65A4.51,4.51,0,0,1,805.2,307.43Z" transform="translate(-210.58 -102.34)"/><path class="cls-26" d="M923.54,370.19q3.71-4.05,7.44-8.09c.84-.91,1.71-2.19,3.07-1s.42,2.27-.45,3.25l-18.15,20.45c-1.07,1.19-2.15,1.42-3.32.11-3-3.34-6-6.64-8.92-10-.76-.86-1.5-1.88-.32-2.9s2.15-.25,3,.71c2.52,2.84,5.06,5.66,7.82,8.74l8.66-9.83Z" transform="translate(-210.58 -102.34)"/><path class="cls-8" d="M923.54,370.19l-1.17,1.5c-1.15-1.92-2.39-3.8-3.43-5.78-1.39-2.66-2.63-5.41-3.92-8.12a3,3,0,0,1-.5-1.46,2.22,2.22,0,0,1,.85-1.49c.26-.15,1.2.27,1.38.65C919.06,360.37,921.29,365.29,923.54,370.19Z" transform="translate(-210.58 -102.34)"/><path class="cls-11" d="M436.71,228.45a24.62,24.62,0,0,1-.62,4.24c-1.34,4.2-5.77,5.09-8.58,1.73a12.8,12.8,0,0,1-2.66-10.71c.38-2.37,2.23-3.67,4.5-4.13s4.54-.36,5.88,1.67c.84,1.28,1,3.05,1.28,4.62a13.66,13.66,0,0,1,0,2.56Z" transform="translate(-210.58 -102.34)"/><path class="cls-11" d="M434.56,218.67l.17.08-.17-.09Z" transform="translate(-210.58 -102.34)"/><path class="cls-26" d="M700.94,322.84H684.21c-1.07,0-2.34.08-2.3-1.41s1.25-1.43,2.35-1.43h33.66c1,0,2.13-.08,2.18,1.34s-1.15,1.49-2.23,1.49Z" transform="translate(-210.58 -102.34)"/><path class="cls-26" d="M701,344.88c-5.64,0-11.28,0-16.92,0-.72,0-1.93-.47-2.07-1-.47-1.54.72-1.82,2-1.82h33.65c1.07,0,2.48-.28,2.44,1.44s-1.47,1.36-2.53,1.37C712.05,344.89,706.54,344.88,701,344.88Z" transform="translate(-210.58 -102.34)"/><path class="cls-26" d="M701.08,333.86H684.56c-.53,0-1.16.13-1.54-.11a2.26,2.26,0,0,1-1.06-1.41c0-.37.58-1,1-1.2a3.55,3.55,0,0,1,1.54-.1H717.6c.26,0,.59-.1.77,0,.61.41,1.17.91,1.75,1.38-.57.47-1.13,1.32-1.72,1.35-3.15.14-6.3.07-9.45.07Z" transform="translate(-210.58 -102.34)"/><path class="cls-26" d="M673.72,318.78a2.5,2.5,0,0,1,2.62,2.75,2.56,2.56,0,0,1-2.59,2.66,2.84,2.84,0,0,1-2.8-2.7A2.74,2.74,0,0,1,673.72,318.78Z" transform="translate(-210.58 -102.34)"/><path class="cls-26" d="M676.35,332.46a2.73,2.73,0,0,1-2.69,2.79A2.8,2.8,0,0,1,671,332.4a2.47,2.47,0,0,1,2.61-2.59A2.52,2.52,0,0,1,676.35,332.46Z" transform="translate(-210.58 -102.34)"/><path class="cls-26" d="M676.34,343.55a2.75,2.75,0,0,1-2.77,2.68,3,3,0,0,1-2.62-2.71,2.76,2.76,0,0,1,2.76-2.7A2.52,2.52,0,0,1,676.34,343.55Z" transform="translate(-210.58 -102.34)"/></svg>