<svg id="Layer_1" data-name="Layer 1" xmlns="http://www.w3.org/2000/svg" viewBox="0 0 277.3 270.45"><defs><style>.cls-1{fill:#fff;fill-rule:evenodd;}</style></defs><path class="cls-1" d="M595.67,309.55a138.66,138.66,0,0,0-43.82,270.21c6.93,1.27,9.46-3,9.46-6.68,0-3.29-.12-12-.18-23.58-38.57,8.38-46.71-18.59-46.71-18.59-6.3-16-15.39-20.28-15.39-20.28-12.59-8.6,1-8.43,1-8.43,13.91,1,21.24,14.29,21.24,14.29,12.36,21.19,32.45,15.07,40.35,11.52,1.26-9,4.84-15.07,8.8-18.54C539.58,506,507.21,494.08,507.21,441a53.62,53.62,0,0,1,14.28-37.21c-1.43-3.5-6.19-17.6,1.36-36.69,0,0,11.64-3.73,38.12,14.21a131.6,131.6,0,0,1,69.42,0c26.47-17.94,38.09-14.21,38.09-14.21,7.57,19.09,2.81,33.19,1.38,36.69A53.51,53.51,0,0,1,684.12,441c0,53.26-32.42,65-63.31,68.42,5,4.28,9.41,12.74,9.41,25.67,0,18.54-.17,33.49-.17,38,0,3.71,2.5,8,9.54,6.67a138.67,138.67,0,0,0-43.92-270.2Z" transform="translate(-457.03 -309.55)"/></svg>